<!-- https://artdraw.org/custom/svg/92778/ornamental-gold-flourish/ -->
<svg id="flourish" xmlns="http://www.w3.org/2000/svg" version="1.1" xmlns:xlink="http://www.w3.org/1999/xlink"
    viewBox="0 0 1257 400" width="100%" height="100%">
    <g>
        <path
            d="M623.70 220.89C622.20 221.80 621.40 223.10 622.20 223.51C622.70 223.10 623.70 222.60 623.90 222.58C624.70 220.80 628.70 220.80 630.90 222.95C631.90 223.10 634.20 224.10 635.70 224.83C642.90 225.80 648.40 234.60 648.40 244.84C648.40 250.10 646.70 249.60 645.90 243.91C644.70 235.30 641.90 231.10 634.70 227.19C630.90 224.60 627.40 223.10 626.70 223.89C623.20 224.60 611.70 233.60 609.90 236.85C608.70 238.60 607.90 241.60 607.70 246.53C607.70 249.60 607.40 252.80 607.40 253.49C607.40 253.30 606.70 252.80 605.70 252.55C603.20 250.10 604.40 240.60 608.20 234.23C608.20 233.80 611.40 228.30 611.40 228.78C611.40 228.30 608.20 231.10 608.20 231.60C604.20 234.60 602.40 238.80 602.40 245.22C602.40 249.10 602.20 249.60 600.40 249.54C597.20 248.30 591.90 250.10 588.90 253.49C583.40 258.60 584.90 269.10 592.90 279.80C595.40 282.60 597.40 285.10 597.40 285.90C597.40 285.60 592.20 283.60 586.20 281.58C577.40 277.60 573.40 276.10 568.20 276.32C560.20 275.10 557.40 276.60 554.70 282.42C553.40 284.60 551.20 286.60 546.40 289.29C541.20 291.60 539.40 293.10 535.70 298.86C533.40 302.10 529.90 305.60 528.40 307.23C525.40 308.60 524.40 311.10 526.40 311.83C526.90 311.10 532.20 315.60 538.20 321.41C543.90 326.10 550.70 331.10 552.90 332.78C555.20 333.10 557.40 335.10 557.90 336.54C558.40 337.10 560.90 339.10 563.40 340.86C567.90 342.10 568.70 342.60 573.40 341.90C576.20 340.60 584.20 337.60 591.20 334.75C598.20 331.10 603.90 328.60 604.20 329.03C604.20 328.60 600.70 333.60 596.20 340.49C588.20 351.00 588.20 351.10 588.70 356.36C589.40 361.10 593.40 367.50 596.70 368.76C598.70 368.60 599.40 369.60 599.90 372.71C600.90 377.60 603.40 380.70 613.20 388.02C618.20 391.10 622.40 394.20 622.40 395.26C622.40 395.20 623.20 396.20 623.70 397.60C625.20 398.70 625.20 398.70 627.90 396.76C629.70 394.70 634.40 391.60 638.90 389.33C646.70 384.10 650.90 379.70 654.40 372.61C655.20 370.60 656.40 369.50 657.70 370.08C660.70 369.50 665.90 365.50 667.90 362.00C670.20 357.10 669.40 350.10 665.90 342.65C664.70 339.10 663.70 336.60 664.20 337.19C664.40 336.60 667.20 338.10 670.20 340.49C677.40 344.10 683.70 345.10 689.90 343.30C694.90 341.10 697.70 337.10 696.90 334.19C696.40 331.60 696.90 331.10 701.20 329.87C704.20 328.10 710.40 323.60 715.70 319.72C720.70 314.60 726.20 310.60 727.70 310.32C729.20 309.10 730.40 308.10 730.40 308.26C730.40 307.60 728.70 306.10 726.70 305.63C724.70 304.10 719.20 300.10 714.90 297.17C708.90 292.10 707.70 291.10 710.70 294.64C712.70 296.10 714.90 299.10 715.90 301.22C716.90 302.10 718.90 304.60 720.70 306.19C720.70 305.60 723.40 308.10 723.40 308.54C723.40 308.10 714.70 316.60 714.70 317.19C707.20 324.10 705.20 325.60 700.90 327.34C693.40 329.10 689.70 328.60 696.70 326.87C701.40 325.10 703.90 323.10 711.20 317.28C711.20 316.60 719.90 309.10 719.90 309.48C719.90 309.10 715.40 304.60 715.40 305.26C712.90 302.60 708.70 298.10 705.90 296.05C703.20 292.60 699.40 289.60 697.70 289.19C695.90 287.60 694.40 286.60 694.40 286.46C694.40 284.60 697.70 284.10 700.20 286.08C702.70 287.10 702.70 287.10 699.70 284.49C697.90 282.10 696.20 280.10 695.90 279.14C694.90 275.60 687.90 272.60 682.70 273.78C669.90 275.10 648.70 285.60 648.40 290.51C648.40 290.60 650.70 289.60 653.20 287.96C664.20 280.10 682.40 273.60 688.70 275.56C692.70 276.10 694.90 279.60 693.70 283.17C691.90 286.10 689.20 285.60 689.70 282.99C689.90 278.60 685.90 277.10 680.20 278.95C671.70 280.60 658.90 285.60 654.20 289.10C649.40 291.60 649.20 291.60 646.70 290.69C645.40 289.60 644.40 288.60 644.40 288.82C644.40 288.10 646.20 285.60 648.40 283.46C654.90 275.10 658.70 266.60 659.20 260.63C659.70 255.30 659.20 254.30 657.40 252.74C654.70 249.80 653.90 249.80 651.20 253.21C648.40 255.30 646.70 254.80 647.90 251.71C649.40 246.60 655.70 247.10 659.70 252.93C663.40 257.10 662.70 264.10 657.70 274.43C655.40 278.60 653.70 282.10 653.90 282.71C655.20 282.10 663.40 269.10 664.40 265.80C666.70 257.50 661.20 247.30 653.70 246.44C650.90 245.60 650.40 245.10 650.40 243.34C650.40 238.80 648.20 233.10 645.40 229.63C643.40 226.30 640.40 224.30 634.70 222.11C634.70 221.80 626.70 217.80 626.70 218.35C626.70 217.80 623.70 220.30 623.70 220.89C623.70 220.30 623.70 220.30 623.70 220.89M631.70 227.84C640.40 231.60 645.40 239.60 645.40 249.91C645.40 252.30 645.90 254.80 646.90 255.84C648.90 257.50 648.90 257.50 651.40 255.27C652.90 253.30 653.70 253.30 655.20 254.24C656.40 254.80 656.90 256.10 656.70 260.81C656.70 265.10 655.90 267.10 652.90 273.03C650.90 276.10 647.70 281.10 645.70 283.36C645.70 283.10 642.40 286.60 642.40 286.93C642.40 286.60 644.40 281.10 644.40 281.39C646.90 273.60 646.90 273.60 643.40 270.21C641.40 267.60 640.70 266.10 641.20 265.05C642.20 260.60 640.40 256.10 636.40 252.65C633.20 249.10 632.20 248.60 628.70 248.88C625.20 248.60 624.20 249.10 621.40 252.18C617.90 255.80 615.90 259.10 614.90 263.45C614.70 264.60 613.20 267.10 611.70 269.27C608.70 272.60 608.70 279.10 611.70 284.11C613.20 286.60 613.40 287.10 612.40 288.35C610.20 289.10 607.90 287.60 601.40 280.83C593.90 272.10 592.40 269.60 592.40 264.39C592.40 256.60 595.20 254.30 598.90 258.28C601.40 260.60 602.40 260.10 606.70 256.59C610.20 252.60 610.40 252.30 610.20 247.38C609.90 239.80 612.20 236.10 620.20 230.47C626.70 225.30 627.20 225.30 631.70 227.84C631.70 227.30 631.70 227.30 631.70 227.84M603.20 252.83C603.70 253.30 604.40 253.80 604.40 255.09C604.40 257.00 602.40 257.10 599.70 255.46C597.90 253.80 596.20 253.30 595.20 254.15C592.70 254.80 589.40 260.10 589.40 263.92C589.40 267.60 595.70 278.10 600.70 284.11C603.20 286.10 604.70 288.10 603.90 288.35C602.20 288.10 595.20 280.10 591.20 274.15C587.70 268.10 587.20 267.10 587.70 262.78C588.20 256.50 589.90 253.80 594.90 252.08C597.90 250.30 600.70 250.60 603.20 252.83C603.20 252.30 603.20 252.30 603.20 252.83M633.90 268.14C636.90 270.60 637.20 274.10 634.40 280.26C634.40 279.60 632.40 284.10 632.40 284.49C632.40 284.10 627.70 283.60 627.70 284.30C622.90 283.60 622.90 283.60 621.40 280.08C619.70 274.60 620.70 269.60 624.20 267.68C627.40 264.60 630.90 265.10 633.90 268.14C633.90 267.60 633.90 267.60 633.90 268.14M589.90 285.43C597.70 288.60 604.70 291.60 605.40 292.10C606.40 291.60 606.40 292.10 605.70 293.14C604.70 293.60 601.90 292.60 594.20 289.94C572.20 280.10 559.40 278.10 559.40 283.64C559.40 285.60 561.70 287.10 563.90 286.84C565.20 286.10 565.40 286.10 565.20 287.96C564.90 288.60 563.90 289.60 562.90 290.04C557.40 290.10 554.90 282.60 559.40 279.80C561.40 277.60 562.90 277.60 568.70 278.39C574.90 278.10 577.40 279.10 589.90 285.43C589.90 285.10 589.90 285.10 589.90 285.43M686.20 281.02C686.90 281.10 687.40 282.60 687.40 284.68C687.40 286.60 687.90 287.10 692.20 288.82C698.90 290.60 704.40 294.10 709.20 300.74C716.40 309.60 716.40 308.10 709.20 315.97C702.40 322.10 699.70 324.10 694.20 325.45C692.20 325.10 689.40 326.60 687.90 328.74C685.20 331.10 685.20 331.10 686.70 333.81C688.20 335.60 688.20 335.60 686.40 337.10C683.20 338.10 675.70 335.10 666.20 329.12C661.20 325.10 657.40 322.10 657.70 322.54C657.70 321.60 659.70 322.10 661.70 323.20C667.20 324.10 673.20 322.10 674.70 319.25C675.20 317.10 676.40 316.10 677.20 316.53C679.90 316.10 687.40 312.10 688.90 310.32C690.20 308.10 690.40 307.10 689.40 304.88C688.20 300.60 685.20 298.60 678.70 297.55C675.90 296.60 672.90 294.60 671.70 293.98C669.70 291.60 668.90 291.10 663.90 291.82C660.90 291.60 656.70 292.10 654.70 293.51C652.20 294.10 650.70 294.10 649.90 293.98C648.90 292.60 663.70 285.60 675.40 282.33C684.20 279.10 684.70 279.10 686.20 281.02C686.20 280.60 686.20 280.60 686.20 281.02M577.40 285.43C583.90 287.10 603.70 296.10 603.20 297.36C602.90 297.10 600.20 296.10 597.20 295.48C594.20 293.60 590.20 292.60 587.70 292.48C584.20 291.60 583.20 291.60 580.20 294.64C578.20 295.60 575.40 297.10 573.40 297.64C568.90 297.60 564.90 299.60 562.40 303.00C556.90 309.10 563.20 318.10 573.20 318.41C576.20 318.10 577.40 318.60 579.70 321.22C583.90 325.10 591.20 325.60 599.90 322.16C602.40 320.60 604.70 320.10 605.20 320.66C606.20 321.10 604.70 321.60 588.70 329.21C574.70 334.60 568.90 336.10 565.40 334.47C563.40 332.60 564.90 329.60 567.40 330.90C568.40 330.60 569.90 330.10 570.90 329.96C572.20 328.10 572.20 327.60 570.90 326.58C568.90 323.10 564.90 322.60 560.70 325.07C558.70 325.60 555.90 326.60 554.70 326.87C551.90 326.60 547.40 322.60 540.40 315.69C540.40 315.10 535.40 309.60 535.40 310.23C535.40 309.60 540.90 302.60 540.90 303.28C543.90 299.10 547.70 295.10 549.20 294.26C553.40 290.60 549.90 291.10 545.20 295.20C542.70 296.60 539.90 299.60 538.40 302.35C537.40 304.10 535.40 307.10 534.40 308.63C534.40 308.10 532.40 310.60 532.40 310.89C532.40 310.60 541.90 319.10 541.90 319.82C548.90 326.10 551.70 328.10 553.70 328.74C556.90 328.10 557.90 329.60 555.40 331.09C552.70 331.10 548.90 329.10 542.20 322.35C539.20 318.60 534.90 315.10 532.70 313.70C532.70 313.10 528.40 310.10 528.40 310.61C528.40 310.10 531.20 306.60 531.20 307.23C532.70 305.10 535.40 301.10 537.20 299.05C539.70 295.10 541.90 293.10 546.40 291.26C552.20 288.10 555.40 287.10 555.40 289.76C555.20 290.10 558.40 291.60 562.40 292.01C564.40 291.60 565.70 291.10 566.40 290.23C567.70 287.10 566.70 284.10 564.40 284.68C561.70 284.60 561.20 284.10 561.90 283.55C562.90 281.60 570.40 282.60 577.40 285.43C577.40 285.10 577.40 285.10 577.40 285.43M636.90 287.87C641.70 289.10 648.20 294.10 649.70 297.64C650.70 298.60 651.40 302.10 651.90 305.35C652.40 309.10 652.20 311.10 650.40 315.40C646.40 323.60 638.70 328.10 628.70 328.74C617.20 328.10 611.20 324.60 606.20 315.97C603.20 309.60 603.20 309.10 604.20 304.13C605.70 296.60 609.20 292.10 616.40 289.01C622.40 285.60 631.20 285.10 636.90 287.87C636.90 287.60 636.90 287.60 636.90 287.87M670.90 303.47C677.40 308.60 670.40 315.10 658.90 314.46C658.90 314.10 654.90 313.60 654.90 314.18C654.90 313.60 654.70 308.10 654.70 308.35C654.20 302.10 654.40 302.10 657.20 301.88C658.70 301.10 660.40 300.60 660.90 300.93C663.20 299.60 668.90 301.10 670.90 303.47C670.90 303.10 670.90 303.10 670.90 303.47M600.20 303.75C600.90 303.60 601.40 306.10 601.40 309.48C601.40 314.60 601.40 314.60 594.20 316.06C591.70 316.10 589.20 315.60 586.20 314.93C580.40 312.10 578.90 310.10 579.90 307.41C580.90 302.10 581.90 301.60 590.90 302.63C595.20 302.10 599.40 303.10 600.20 303.75C600.20 303.10 600.20 303.10 600.20 303.75M660.90 328.37C665.90 331.10 672.70 335.60 676.20 337.47C681.70 339.10 683.20 339.60 686.20 339.46C689.20 338.10 689.90 337.60 689.70 336.25C689.70 334.60 689.40 332.60 688.90 332.22C687.70 329.10 692.20 329.60 693.70 332.97C696.20 337.60 689.20 343.10 680.90 342.37C675.70 341.10 669.90 338.10 658.70 329.96C653.40 325.60 649.40 323.10 649.40 324.42C649.40 324.60 651.70 327.10 654.70 329.78C659.20 332.60 660.70 334.60 662.70 340.02C664.20 343.10 665.70 348.00 666.40 351.57C667.40 356.00 667.40 357.00 665.20 361.43C662.40 366.10 658.70 368.50 654.70 367.64C652.40 366.50 651.90 365.60 651.90 364.06C651.90 360.10 654.20 359.10 654.70 362.75C654.90 365.00 657.70 365.50 660.90 364.06C663.20 362.10 663.40 361.50 663.40 355.24C663.40 346.10 661.20 340.60 653.70 332.97C650.90 329.60 648.40 326.10 647.90 326.11C647.20 324.10 648.90 321.60 650.70 322.16C651.40 321.60 655.90 324.60 660.90 328.37C660.90 328.10 660.90 328.10 660.90 328.37M607.20 324.32C604.70 325.60 579.70 337.60 575.90 339.46C568.40 341.10 561.40 339.60 559.20 335.22C558.40 332.60 558.40 331.60 559.90 329.21C561.40 325.60 561.90 325.10 564.90 326.11C569.20 326.10 570.90 328.10 567.20 328.74C561.70 328.10 561.20 331.60 565.90 336.25C567.90 337.60 568.40 337.60 572.90 337.29C575.70 336.10 584.40 332.60 592.40 329.68C600.40 325.60 607.20 323.10 607.20 323.66C607.40 323.10 607.40 323.60 607.20 324.32C607.20 323.60 607.20 323.60 607.20 324.32M611.70 326.49C611.90 326.10 609.70 329.60 606.40 333.91C598.40 343.10 594.90 349.60 594.90 356.93C594.90 361.10 594.90 361.50 597.70 362.37C599.40 362.00 600.40 361.60 600.90 360.77C601.70 358.00 602.90 357.60 603.70 360.31C605.40 363.60 600.70 367.50 595.90 366.32C593.20 364.60 592.40 363.60 591.40 360.02C589.90 354.00 592.40 348.00 599.70 339.36C603.20 334.10 606.70 329.60 607.40 328.46C608.70 325.60 610.20 324.60 611.70 326.49C611.70 326.10 611.70 326.10 611.70 326.49M612.90 331.65C609.70 334.60 607.40 339.60 607.40 343.77C607.40 346.10 609.20 347.60 613.90 350.63C616.20 351.10 617.20 352.50 618.20 356.17C620.20 362.60 625.90 366.60 631.90 365.95C635.70 364.50 638.20 361.60 639.90 356.17C641.40 350.60 641.90 350.00 644.70 349.59C652.20 346.50 653.40 341.10 648.90 333.44C648.90 333.10 646.20 327.60 646.20 328.27C646.20 327.60 649.90 331.10 649.90 331.56C655.70 336.10 659.20 343.10 660.70 351.95C661.20 355.50 661.40 359.60 661.20 360.96C660.20 362.60 656.20 362.60 656.70 360.87C656.70 359.10 656.20 358.60 654.70 358.99C653.20 358.10 651.90 359.00 650.40 361.71C649.40 362.60 648.70 364.60 649.20 365.95C649.40 366.10 647.70 369.60 645.40 373.74C642.20 378.10 640.20 380.60 635.40 384.08C626.70 389.10 626.20 389.10 620.20 385.30C610.70 378.00 609.70 376.50 607.20 366.79C605.20 358.10 604.40 357.00 602.70 357.11C601.40 356.50 599.90 357.00 599.20 358.71C595.20 363.50 595.40 353.60 599.40 346.97C602.70 340.60 612.90 328.10 614.70 328.74C615.20 328.10 614.40 329.60 612.90 331.65C612.90 331.10 612.90 331.10 612.90 331.65M637.40 332.50C637.90 333.10 638.70 336.10 639.20 338.88C639.70 342.10 639.20 343.10 637.20 345.93C633.90 349.00 628.70 349.60 625.20 347.62C622.20 344.60 620.90 340.60 621.90 335.78C621.90 335.10 622.40 331.10 622.40 331.65C622.40 331.10 627.20 330.60 627.20 331.28C629.70 330.60 632.90 330.60 634.20 330.81C635.40 330.10 636.70 331.10 637.40 332.50C637.40 332.10 637.40 332.10 637.40 332.50M605.20 374.21C606.20 376.10 609.70 379.70 616.20 385.20C621.20 388.70 625.90 392.10 626.20 392.63C626.70 392.10 627.70 391.60 628.20 391.41C628.70 390.20 631.90 388.10 635.40 386.52C639.70 383.20 642.90 380.20 646.40 375.90C651.20 369.10 653.40 367.10 653.40 370.08C653.40 371.50 648.70 379.60 646.20 381.92C643.40 383.70 626.70 394.10 625.70 394.51C625.20 394.10 620.40 390.70 615.20 387.08">
        </path>
        <path d="M619.90 289.76C601.20 295.60 600.70 316.10 618.90 325.64">
        </path>
        <path d="M615.20 226.06C613.90 227.10 613.90 227.10 615.90 226.34">
        </path>
        <path
            d="M431.80 249.54C431.70 249.30 431.70 252.30 431.80 256.03C432.30 259.00 432.30 264.10 431.80 268.14C431.80 267.60 431.20 274.10 431.20 274.43C431.20 274.10 428.80 269.10 428.80 269.74C423.80 259.00 410.30 254.80 398.70 260.63C390.80 263.60 387.80 268.60 387.80 276.79C387.80 279.60 387.80 282.10 387.80 282.71C387.30 282.10 384.80 281.10 382.30 280.45C371.30 275.60 351.80 274.60 342.80 278.48C340.80 279.10 336.70 281.10 333.80 283.64C329.30 286.10 316.30 292.60 310.30 295.20C307.20 295.60 306.30 298.60 308.70 301.88C310.30 303.60 310.70 304.10 309.20 306.85C308.30 307.60 307.20 311.10 306.70 313.70C305.80 315.60 303.70 320.10 301.30 323.85C299.20 326.60 296.70 330.60 296.20 332.87C295.30 334.10 291.80 338.60 287.80 342.55C287.80 342.10 280.80 348.60 280.80 349.12C280.80 348.60 272.30 347.60 272.30 348.37C261.80 347.00 253.50 345.10 251.50 344.15C250.30 342.60 250.30 341.60 251.50 337.29C252.30 333.60 252.50 330.10 252.30 329.68C251.50 327.10 255.00 324.10 260.00 323.48C262.30 322.60 263.30 322.60 264.70 324.88C266.30 326.60 266.30 326.60 263.80 330.34C261.00 333.60 261.00 334.10 262.80 336.63C264.80 338.60 273.70 339.10 277.20 337.66C280.30 335.10 282.80 329.60 282.20 326.01C281.20 319.60 271.30 312.10 264.30 312.77C254.00 312.10 246.30 317.60 242.50 327.15C239.80 333.60 239.80 338.60 242.80 345.28C245.50 350.10 250.50 354.10 259.50 358.80C266.80 361.50 276.20 362.10 283.30 360.21C288.80 358.00 289.30 358.00 289.30 360.12C289.30 360.10 290.70 362.10 292.20 364.45C296.80 369.10 304.20 371.10 311.20 370.08C315.80 368.10 321.30 363.60 322.80 360.59C323.30 358.10 323.80 357.60 325.80 358.52C327.80 358.50 328.80 357.60 330.80 355.71C330.80 355.10 333.30 352.00 333.30 352.42C333.30 352.00 338.70 353.60 338.70 354.39C342.70 355.50 345.80 355.60 353.80 356.36C363.30 356.00 364.30 355.60 370.30 353.36C374.30 351.10 379.80 348.00 382.80 346.21C388.30 342.10 388.80 341.10 390.30 336.63C392.30 327.10 391.80 321.60 388.30 315.31C384.30 307.60 381.80 305.10 374.80 303.28C365.80 300.10 355.80 300.60 347.80 304.88C342.30 307.10 340.70 317.10 344.30 323.57C345.80 325.10 346.80 325.60 349.80 325.73C353.30 325.10 356.80 322.10 360.80 316.06C361.80 314.10 361.80 314.10 364.80 315.87C369.80 317.60 371.80 321.10 372.80 327.52C373.30 331.60 373.30 332.60 371.30 334.56C369.80 335.10 367.30 336.10 365.30 337.19C362.80 337.10 358.80 339.60 355.80 341.99C349.30 346.10 347.30 346.60 342.30 344.81C340.20 343.10 336.70 342.10 334.30 342.83C329.30 342.10 326.20 338.60 326.80 334.75C327.30 332.10 326.80 329.60 325.20 326.77C322.80 321.60 322.80 320.10 322.80 312.77C323.30 304.10 323.80 303.10 325.70 302.44C327.20 301.10 328.80 299.10 330.30 298.30C337.70 289.60 339.20 288.60 342.70 289.29C344.30 288.60 348.80 288.10 352.80 287.31C359.30 285.10 359.30 285.10 365.80 287.02C369.80 287.60 373.80 288.10 376.30 288.06C380.30 287.10 381.30 287.60 389.80 293.04C394.80 295.60 400.70 299.60 402.80 301.50C409.80 306.10 423.70 323.60 424.30 329.21C424.80 330.60 424.30 331.10 416.30 330.15C411.80 329.10 411.30 329.10 406.80 333.53C404.30 335.10 401.20 338.60 399.30 340.30C397.20 341.60 396.30 343.10 396.30 346.21C396.30 348.00 396.80 349.00 397.80 349.41C398.70 349.00 399.30 348.50 399.30 348.56C399.30 346.50 409.80 339.60 413.80 339.17C419.70 337.10 426.30 339.10 434.30 344.81C441.30 348.60 458.80 357.00 468.80 360.49C477.80 363.00 490.80 363.50 504.80 362.09C525.90 358.60 533.20 356.60 542.90 350.53C546.90 347.10 553.20 339.10 551.90 338.41C551.70 337.60 549.70 338.60 547.70 340.86C545.70 342.10 542.90 344.10 541.40 344.99C539.90 345.10 537.40 346.50 535.70 348.19C532.20 350.10 529.70 350.10 520.70 349.31C515.90 348.00 513.40 348.00 509.30 349.69C504.80 350.50 504.30 350.50 498.30 348.37C494.30 346.10 490.30 345.10 486.80 345.65C483.80 345.10 480.30 344.10 476.30 342.74C470.30 339.60 469.30 339.10 463.30 340.39C463.30 340.10 456.80 340.60 456.80 340.96C456.80 340.60 450.20 335.60 450.20 336.25C450.20 335.60 443.30 331.10 443.30 331.56C443.30 331.10 443.30 326.10 443.30 326.39C443.30 323.10 442.80 319.60 442.30 318.69C441.70 316.60 440.80 311.60 440.80 307.13C440.70 298.10 440.80 297.60 443.70 294.26C446.30 290.10 446.30 289.60 445.30 286.27C444.30 282.10 444.70 281.60 447.30 278.95C450.80 274.10 459.30 269.60 466.30 268.52C469.30 267.60 475.30 267.10 479.80 267.86C486.80 267.60 488.80 268.10 492.30 270.77C494.30 271.60 497.80 274.60 499.30 277.64C501.30 280.10 502.80 281.60 505.80 282.89C509.80 283.60 510.30 284.60 506.80 293.32C505.30 296.60 505.30 297.60 506.30 300.74C507.80 304.10 506.30 305.10 499.80 307.60C496.30 308.10 494.30 309.10 492.80 311.83C492.80 311.10 491.30 314.10 491.30 314.56C491.30 314.10 486.30 312.10 486.30 312.67C483.30 311.10 479.30 310.60 477.80 311.08C475.30 310.60 473.80 310.10 473.30 309.95C471.80 307.10 474.30 298.10 476.30 298.67C476.80 298.10 478.80 299.10 480.80 300.65C484.80 302.60 487.30 302.10 489.30 299.05C492.30 292.60 488.80 284.60 482.80 284.02C477.80 282.60 471.30 283.60 468.30 286.18C461.80 290.10 457.30 305.10 460.80 311.45C462.80 315.10 470.30 321.60 476.30 324.79C481.30 326.60 482.80 326.60 494.80 327.34C494.80 326.60 507.30 326.60 507.30 327.34C507.30 326.60 510.80 323.10 510.80 323.57C517.20 316.60 523.90 306.10 525.40 301.50C527.70 291.60 524.20 279.60 516.40 271.99C499.80 254.80 476.30 252.10 454.80 264.86C450.30 266.60 448.20 267.60 447.80 267.39C447.70 266.10 446.80 263.60 446.30 261.09C445.20 253.80 443.80 250.60 441.30 249.91C439.30 248.30 432.80 248.10 431.80 249.54C431.80 249.10 431.80 249.10 431.80 249.54M396.80 267.68C392.30 272.60 392.30 280.60 397.20 286.65C399.30 288.60 399.30 289.10 397.30 287.87C393.80 284.60 392.30 281.10 392.30 277.07C392.30 272.60 393.30 270.10 396.70 266.92C399.70 263.50 399.80 264.10 396.80 267.68C396.80 267.10 396.80 267.10 396.80 267.68M424.70 298.39C423.80 311.10 421.80 311.60 412.30 302.63C412.30 302.10 405.80 295.60 405.80 296.33C405.80 295.60 411.30 295.10 411.30 295.76C416.80 294.60 422.70 292.60 423.80 291.16C424.80 289.10 425.20 289.60 424.70 298.39C424.70 298.10 424.70 298.10 424.70 298.39M314.30 335.78C316.80 342.10 316.80 342.60 313.80 341.33C312.20 340.10 309.80 339.60 308.30 340.02C305.20 339.60 305.20 339.60 307.20 335.97C310.80 328.60 311.70 328.60 314.30 335.78C314.30 335.10 314.30 335.10 314.30 335.78M312.20 344.62C314.30 345.10 316.80 347.00 317.30 348.65C318.80 350.10 318.30 350.00 315.80 348.19">
        </path>
        <path
            d="M814.20 250.77C811.40 252.10 809.40 258.60 809.40 264.86C809.40 266.10 809.20 267.10 808.70 267.96C808.20 267.60 804.90 266.10 801.40 264.77C791.40 258.60 783.20 256.60 772.20 257.53C763.90 257.50 761.90 258.00 755.20 261.38C745.70 265.10 737.70 272.10 733.70 280.55C731.20 284.60 730.90 286.60 730.90 294.45C730.90 301.10 731.20 303.10 733.20 307.41C736.70 313.60 746.20 324.60 749.20 326.58C752.70 327.60 767.40 327.60 774.40 326.58C783.70 324.10 793.90 316.10 796.40 309.57C798.40 303.10 794.70 292.10 788.40 286.93C785.90 284.10 784.40 283.60 779.20 283.83C773.90 283.10 772.40 283.60 770.20 285.43C766.40 287.60 764.90 292.10 766.70 297.27C768.40 302.10 770.40 303.10 775.90 300.55C781.20 297.60 781.90 297.60 782.90 305.07C783.70 309.60 782.20 311.60 778.40 311.26C776.90 310.60 773.70 311.10 770.70 312.58C770.70 312.10 765.40 314.10 765.40 314.46C765.40 314.10 762.90 311.10 762.90 311.45C761.40 309.10 758.90 307.60 756.20 307.32C749.20 305.10 748.70 304.60 750.20 300.93C751.20 297.60 750.90 296.10 748.90 291.63C747.40 288.10 746.40 285.10 746.40 285.15C746.40 284.10 748.40 283.10 750.90 282.71C753.40 281.10 755.40 280.10 755.40 280.08C755.40 277.60 763.20 270.60 766.70 269.46C771.90 266.60 784.90 266.60 792.40 269.18C799.20 270.60 806.20 275.10 809.20 279.42C810.90 281.10 811.20 282.60 810.70 286.55C810.20 289.60 810.70 291.10 813.40 295.20C816.40 298.60 816.70 299.10 815.70 303.10C814.90 304.60 814.70 308.10 815.20 310.61C815.40 312.60 815.20 315.60 814.20 318.88C813.20 320.60 812.70 323.10 813.20 324.51C813.40 324.60 813.20 327.10 812.90 329.21C812.40 331.10 811.20 332.60 805.40 336.72C798.70 340.60 798.40 340.60 792.70 340.39C787.20 339.10 785.90 339.60 780.20 342.74C775.90 344.10 772.70 345.10 769.20 345.65C766.20 345.10 762.40 346.10 758.40 348.37C752.40 350.50 752.20 350.60 747.20 349.78C742.90 348.10 740.20 348.10 733.20 349.59C724.90 350.10 724.20 350.00 721.70 348.75C720.20 347.10 717.20 345.60 715.40 345.18C713.40 343.60 710.20 341.60 708.20 340.77C703.70 337.10 703.20 338.60 707.20 344.24C710.70 348.60 718.70 354.00 725.20 357.02C734.70 359.60 752.70 362.10 766.90 362.84C778.40 362.10 780.70 362.00 787.90 360.31C798.70 356.10 814.70 349.00 820.90 345.46C828.70 339.60 832.40 338.10 837.90 338.79C843.70 338.10 847.70 340.10 853.90 345.84C858.40 349.10 860.40 349.10 860.40 346.12C860.40 343.10 858.40 340.60 849.90 334.38C843.70 328.60 843.20 328.60 833.40 331.28C831.20 331.10 831.20 331.10 831.70 329.21C832.70 325.10 839.70 315.10 846.20 308.35C849.70 303.60 854.90 299.60 863.40 295.01C874.90 287.10 875.40 287.10 880.20 287.96C883.20 288.10 886.90 287.60 890.40 287.02C895.90 285.10 896.40 285.10 903.40 287.40C907.70 288.10 912.20 288.60 913.90 289.29C916.00 288.60 917.90 290.10 921.00 293.60C923.40 295.60 925.90 298.10 926.90 299.24C927.40 299.60 929.40 301.10 930.90 302.72C933.40 304.10 933.50 304.60 933.50 313.33C933.90 319.60 933.40 322.10 931.50 326.30C930.50 328.10 929.50 332.10 929.50 334.75C929.50 340.10 927.40 342.10 921.90 342.83C919.40 342.10 915.90 343.10 913.40 344.71C908.70 346.50 906.90 346.10 900.70 342.18C898.20 340.10 893.70 337.60 890.90 337.29C883.90 334.60 882.20 332.10 883.40 326.39C884.20 322.10 885.20 320.60 888.40 318.13C890.40 315.60 892.70 314.10 893.40 314.65C893.90 314.10 895.90 316.60 897.90 319.82C901.70 324.60 904.40 326.10 908.70 325.54C915.90 323.60 915.40 307.10 907.90 304.50C895.70 298.60 879.40 300.60 872.40 308.63C865.20 316.10 863.20 323.60 865.70 335.60C867.40 342.10 867.40 342.10 873.40 346.50C876.70 348.10 882.40 351.10 886.20 353.45C892.20 355.60 893.70 356.00 902.40 356.46C909.70 355.60 913.40 355.50 917.90 354.39C917.90 353.60 923.50 351.60 923.50 352.33C923.50 351.60 925.00 354.50 925.00 355.05C926.50 357.50 929.40 358.60 932.50 358.33C934.00 357.10 934.50 357.60 934.50 359.46C934.50 360.00 935.40 361.60 936.50 363.87C943.40 373.10 961.50 372.60 967.00 363.03C968.00 360.50 969.00 358.60 969.00 358.99C969.00 358.50 970.90 359.00 972.90 360.21C974.90 360.50 979.50 361.10 983.50 361.62C989.00 361.10 991.90 360.50 996.90 358.90C1004.40 355.10 1011.50 349.10 1013.90 345.28C1016.40 340.10 1016.00 330.60 1013.40 325.92C1009.40 317.10 1003.90 313.60 994.40 313.14C988.50 312.10 987.50 312.60 983.40 315.59C977.40 318.60 974.50 322.60 974.50 328.09C974.50 334.60 978.90 338.60 986.40 339.08C993.50 338.60 997.00 333.60 992.50 330.15C987.40 325.10 993.40 321.10 1000.00 324.60C1004.00 326.10 1004.00 326.10 1004.50 332.97C1005.00 336.10 1005.40 339.60 1005.50 340.49C1006.40 341.60 1004.40 345.10 1002.50 345.65C1001.90 345.10 998.50 345.60 995.50 346.97C992.50 347.10 986.90 348.00 982.50 348.75C975.50 348.60 975.00 348.50 972.90 346.68C971.40 344.60 968.50 342.10 966.40 340.39C964.00 337.60 961.50 334.10 960.40 332.59C959.40 329.60 957.00 326.10 955.40 324.23C953.90 321.60 951.00 315.60 949.40 312.01C946.50 304.10 946.50 303.60 948.00 301.78C949.40 299.60 949.50 298.60 948.50 297.17C948.00 295.60 946.90 294.60 946.40 294.92C943.90 294.60 925.40 285.60 921.90 283.27C915.00 277.60 909.90 276.10 897.40 276.70C885.40 276.10 877.90 277.60 870.20 281.86C870.20 281.60 866.40 283.10 866.40 283.74C866.40 283.10 866.90 279.60 866.90 280.08C868.90 268.10 858.70 258.00 845.70 258.28C837.20 258.00 830.70 261.10 826.20 268.14C826.20 267.60 824.20 270.60 824.20 270.96C824.20 270.60 824.40 260.60 824.40 261.00C824.70 255.30 824.40 250.10 823.90 250.01C822.90 247.80 816.90 248.30 814.20 250.77C814.20 250.30 814.20 250.30 814.20 250.77M837.70 289.47C838.70 289.60 841.90 290.10 844.70 291.16C849.70 291.10 849.70 291.60 845.90 292.01C840.90 291.60 834.40 289.10 831.70 285.99C828.20 281.60 828.90 280.60 832.40 285.05C834.20 286.60 836.70 288.60 837.70 289.47C837.70 289.10 837.70 289.10 837.70 289.47M844.40 295.86C847.20 295.60 849.40 295.60 849.40 296.61C849.40 298.10 837.20 308.60 835.40 309.01C832.90 308.60 832.70 308.10 831.90 299.33C831.90 299.10 831.40 291.60 831.40 292.10C831.40 291.60 835.40 293.60 835.40 293.98C837.70 294.60 841.20 295.60 844.40 295.86C844.40 295.60 844.40 295.60 844.40 295.86M947.40 331.75C947.90 332.10 948.90 334.10 949.90 336.44C949.90 336.10 951.40 339.60 951.40 339.92C951.40 339.60 947.40 340.60 947.40 341.05C945.00 341.10 942.40 342.10 941.00 343.40C941.00 343.10 938.90 344.10 938.90 344.81C938.90 344.10 940.50 339.10 940.50 339.64C943.50 330.60 945.00 328.60 947.40 331.75C947.40 331.10 947.40 331.10 947.40 331.75M952.40 344.43">
        </path>
        <path
            d="M44.70 280.83C41.20 281.60 39.90 283.10 38.70 286.46C37.40 288.60 36.70 289.60 35.40 289.66C34.70 288.60 31.20 288.10 27.70 288.54C21.80 287.60 20.70 288.10 13.80 291.54C5.60 294.60 2.20 298.10 0.40 304.22C-1.20 310.60 1.70 320.60 7.60 325.26C11.10 327.10 20.20 328.10 24.30 326.87C28.80 324.60 33.40 319.10 33.40 316.44C33.40 312.60 31.20 308.10 28.80 307.70C25.80 306.10 19.70 306.60 18.20 308.63C16.00 310.10 16.20 310.60 18.50 314.00C19.70 314.60 20.50 316.10 20.50 317.38C20.50 318.60 17.20 319.60 14.10 319.25C9.60 317.60 8.10 316.10 8.60 313.90C8.80 312.10 8.60 309.60 8.10 307.88C7.60 304.60 7.60 303.10 8.30 303.00C10.10 301.10 19.00 299.10 26.30 299.14C26.30 298.60 32.70 298.10 32.70 298.77C32.70 298.10 38.70 304.10 38.70 304.41C41.70 307.10 44.40 310.10 44.40 311.17C44.40 311.10 46.20 314.10 48.20 317.94C50.20 320.60 52.70 325.60 54.20 329.68C56.20 334.60 56.20 335.60 54.70 337.38C52.40 339.10 54.70 341.60 61.40 344.71C64.60 345.10 70.10 348.10 73.60 350.81C82.60 356.00 83.60 356.50 90.60 357.96C96.10 358.10 99.10 358.10 110.10 356.36C112.10 355.50 112.10 355.60 111.10 358.43C110.60 359.10 110.10 362.50 110.10 365.48C110.10 378.50 125.10 387.70 140.50 384.17C145.00 382.60 152.30 376.60 154.00 373.18C154.80 371.00 155.50 369.50 155.80 370.08C156.00 369.50 156.30 371.60 156.00 374.96C155.80 378.50 156.30 379.60 157.80 380.23C163.50 380.70 166.30 377.50 167.80 368.86C168.30 366.00 168.80 364.00 169.00 364.45C169.30 364.00 170.80 364.60 172.30 366.32C174.00 367.00 177.80 369.00 181.00 370.83C186.00 372.50 188.30 372.60 195.80 373.36C203.80 372.60 205.80 372.50 211.80 370.36C219.50 366.10 226.80 360.00 229.80 354.39C232.30 348.50 233.00 340.10 231.30 335.88C230.30 332.10 220.30 318.10 218.30 317.28C215.80 315.60 205.50 315.10 199.00 316.53C194.00 317.10 191.00 318.10 187.50 321.04C178.00 327.10 175.80 333.60 180.30 343.02C182.80 348.00 186.30 350.60 191.30 351.95C200.30 352.50 205.80 346.50 202.30 339.55C200.80 336.10 197.80 336.10 194.50 338.79C192.30 339.60 192.00 339.60 190.80 338.60C190.00 337.10 189.30 334.60 189.30 333.25C189.30 329.10 189.50 329.10 192.80 329.68C194.80 329.10 198.00 328.60 200.00 328.27C203.50 326.60 203.80 326.60 205.50 329.12C206.80 330.10 209.30 331.60 211.30 332.59C216.80 333.60 217.30 334.60 216.30 338.04C215.30 339.60 215.30 341.10 217.30 345.65C218.30 347.60 219.30 350.50 218.80 351.28C218.80 351.10 217.30 351.60 215.80 352.70C213.80 352.50 212.00 354.00 210.80 356.74C209.30 358.10 206.80 360.60 204.80 362.56C201.30 364.10 200.00 364.50 192.00 364.82C181.30 364.10 174.30 361.60 169.30 357.11C166.50 353.60 166.30 352.60 166.80 350.16C167.30 346.60 166.80 345.10 165.00 343.02C163.00 339.60 162.80 338.10 162.80 332.87C163.00 328.60 163.80 324.10 164.30 322.82C165.00 320.60 165.30 318.10 164.80 317.56C164.00 314.10 166.30 311.10 171.80 308.26C176.30 305.10 177.50 305.10 181.50 305.82C185.30 305.60 187.00 305.60 191.30 303.94C194.00 302.10 198.00 301.10 200.30 301.50C202.30 301.10 206.50 300.10 209.30 299.24C214.00 296.60 214.80 296.60 218.80 298.20C221.80 298.60 224.80 298.60 230.00 298.39C236.80 297.10 237.30 297.10 241.80 300.18C244.30 301.10 248.30 303.60 250.00 305.63C254.30 308.10 254.50 306.60 251.00 302.35C248.00 297.60 240.80 293.10 234.50 291.73C221.30 287.10 197.50 285.60 187.50 288.91C181.00 290.10 162.30 298.60 154.30 303.85C147.30 307.60 141.50 308.10 135.80 304.50C133.80 302.60 131.10 300.60 130.60 300.27C128.60 297.60 126.10 297.60 126.10 301.12C126.10 302.10 128.10 304.60 132.10 308.63C138.80 314.10 139.80 314.60 145.30 313.81C147.50 312.60 149.50 312.60 149.80 313.42C150.80 314.10 145.50 322.10 139.80 329.49C135.80 334.10 131.60 337.10 125.10 342.08C116.60 347.00 115.10 347.50 108.10 348.75C97.60 349.10 94.60 349.10 87.60 348.56C79.60 346.50 77.10 345.10 74.60 341.90C73.10 339.60 71.10 337.60 69.60 337.29C67.10 335.60 67.10 334.60 66.60 328.27C66.60 322.10 67.10 319.10 68.60 316.62C69.60 313.60 70.10 311.10 70.10 310.51C69.60 309.10 70.10 307.10 71.10 305.91C72.10 303.10 73.10 302.60 75.60 303.75C77.60 303.60 79.60 303.10 82.60 302.35C82.60 302.10 86.60 300.10 86.60 300.46C86.60 300.10 91.10 302.60 91.10 303.10C97.60 306.60 99.60 307.10 103.10 309.10C107.60 310.10 108.60 312.10 107.10 317.75C106.10 321.10 102.10 326.60 99.10 326.87C98.60 326.60 97.10 324.60 95.60 322.91C92.10 317.60 90.10 316.60 87.10 317.84C81.10 318.60 81.10 331.60 87.60 334.94C93.10 337.10 101.10 338.10 106.60 336.72C119.60 332.60 125.10 322.10 121.60 308.45C120.10 303.60 119.60 303.10 113.60 299.61C103.60 293.10 98.10 291.10 90.10 292.38C86.60 292.10 81.60 293.10 79.60 294.36C75.10 295.60 75.10 295.60 73.10 293.51C71.10 290.60 68.60 290.10 66.60 292.29C65.60 292.60 65.10 292.60 65.10 291.07C65.10 287.60 62.20 282.60 59.20 281.39C55.20 278.60 49.40 278.10 44.70 280.83C44.70 280.60 44.70 280.60 44.70 280.83M60.70 306.57C59.20 310.10 57.70 313.10 57.20 313.42C56.40 312.60 54.90 310.60 53.70 308.92C53.70 308.60 51.70 304.10 51.70 304.79C51.70 304.10 55.20 303.10 55.20 303.57C57.20 302.60 59.70 301.10 60.70 300.55C61.90 299.10 63.20 298.60 63.20 299.05C63.40 298.60 62.20 302.10 60.70 306.57C60.70 306.10 60.70 306.10 60.70 306.57M53.70 301.22C53.20 301.10 51.70 301.10 50.70 301.22C49.70 300.60 50.20 300.10 51.90 300.74C53.70 300.10 54.20 300.60 53.70 301.22C53.70 300.60 53.70 300.60 53.70 301.22M149.50 339.08C149.80 342.60 151.00 347.50 152.30 350.34C154.80 355.10 155.00 357.60 152.50 354.49C149.80 349.60 145.00 347.00 138.30 345.65C138.30 345.10 132.10 343.60 132.10 344.15C132.10 343.60 138.50 337.10 138.50 337.85C143.00 332.60 145.30 331.10 146.80 331.75C148.80 331.60 149.00 332.60 149.50 339.08C149.50 338.60 149.50 338.60 149.50 339.08M150.30 361.62C151.80 366.10 150.00 371.10 145.50 375.90C145.50 375.10 142.00 378.50 142.00 379.01C142.00 378.50 145.30 375.00 145.30 375.43C146.80 373.00 148.80 370.10 149.00 369.51C150.00 364.60 148.80 358.50 145.80 355.33">
        </path>
        <path
            d="M1195.30 281.11C1193.30 281.60 1191.30 284.10 1190.30 286.18C1189.30 287.60 1188.30 288.60 1186.80 289.29C1185.30 288.60 1183.80 289.60 1182.80 291.63C1180.80 293.60 1180.80 293.60 1176.30 292.38C1173.80 291.10 1168.80 290.10 1163.80 290.79C1155.30 290.10 1150.30 292.10 1140.30 299.24C1135.80 302.10 1135.30 302.10 1134.30 309.10C1131.80 322.60 1138.30 332.10 1152.80 335.69C1157.30 336.10 1167.30 334.10 1170.80 331.47C1172.80 329.10 1173.30 327.60 1173.30 324.32C1173.30 313.10 1165.30 312.10 1159.80 322.07C1159.30 323.10 1157.80 324.60 1157.30 324.98C1156.80 324.60 1154.80 323.10 1152.80 322.07C1150.30 319.60 1149.30 317.60 1148.80 315.03C1147.80 309.60 1149.80 307.10 1154.80 306.57C1156.30 305.60 1159.30 304.10 1161.30 303.38C1167.80 298.10 1168.80 298.10 1173.30 300.55C1176.30 301.60 1178.30 302.10 1180.30 301.97C1183.80 300.60 1186.30 303.60 1186.30 308.63C1186.30 309.60 1187.30 312.60 1188.30 315.22C1189.30 317.10 1189.80 320.60 1189.30 325.92C1189.30 332.10 1189.30 332.60 1185.80 336.35C1183.80 337.60 1180.80 340.60 1179.30 342.65C1177.30 344.10 1175.30 345.10 1173.80 345.65C1172.30 345.10 1168.30 345.60 1165.30 347.15C1160.30 347.60 1158.80 348.00 1154.80 347.62C1152.30 346.50 1148.30 346.10 1145.80 346.59C1142.30 346.10 1140.30 345.10 1132.30 340.86C1122.80 334.10 1115.80 327.60 1110.30 319.25C1105.80 312.10 1105.30 310.10 1108.30 311.26C1115.80 313.10 1116.80 312.60 1123.30 307.41C1129.30 301.60 1131.30 298.10 1129.30 297.27C1128.80 296.60 1126.80 297.60 1124.80 299.52C1115.80 306.60 1109.30 306.60 1098.80 300.27C1091.80 295.60 1077.80 289.10 1068.30 286.93C1064.30 285.10 1060.80 285.10 1050.30 285.80C1025.40 286.10 1009.50 292.10 1003.90 302.63C1002.00 305.60 1002.50 305.60 1007.90 302.44C1009.90 300.60 1012.40 299.10 1012.90 299.61C1013.40 299.10 1014.90 298.10 1016.50 297.64C1019.00 295.60 1020.00 295.10 1026.40 296.42C1029.80 296.10 1033.80 296.60 1034.30 296.98C1035.30 296.10 1037.30 296.10 1039.30 296.23C1041.80 295.10 1044.30 295.60 1047.30 297.64C1049.30 298.10 1053.30 299.10 1055.30 299.61C1057.80 299.10 1061.80 300.10 1064.80 302.06C1068.80 303.60 1070.30 304.10 1074.80 303.94C1079.80 303.10 1080.30 303.10 1085.30 307.13C1091.30 310.60 1091.30 310.60 1091.80 316.72C1092.30 319.60 1092.80 324.60 1092.80 327.81C1092.80 330.10 1093.30 333.60 1093.80 335.13C1094.30 336.10 1093.80 337.60 1091.80 340.58C1089.80 343.10 1089.30 344.10 1089.80 347.81C1090.30 350.10 1089.80 351.60 1088.80 353.64C1083.30 359.10 1073.30 363.00 1063.30 363.50C1055.80 363.00 1050.30 360.10 1046.30 355.61C1044.30 352.10 1042.30 350.60 1040.30 350.81C1036.80 349.50 1036.80 349.00 1039.30 343.40C1040.80 339.10 1040.80 337.60 1040.30 335.97C1038.80 332.60 1039.80 331.60 1045.30 330.62C1047.30 329.60 1049.80 328.10 1050.80 327.34C1052.30 324.60 1052.80 324.60 1055.30 326.11C1056.80 326.10 1059.80 327.10 1062.30 327.71C1062.30 327.10 1066.80 327.60 1066.80 328.27C1066.80 327.60 1066.80 332.10 1066.80 332.40C1066.30 337.10 1065.30 338.60 1061.80 336.82C1057.80 333.60 1055.30 334.60 1053.80 339.36C1052.80 341.60 1052.80 343.10 1053.80 345.65C1055.80 348.60 1058.30 349.60 1063.30 350.34C1070.80 349.60 1076.80 343.10 1078.30 334.00C1078.30 329.60 1078.30 328.10 1076.30 325.92C1072.80 321.10 1066.30 316.10 1061.30 315.50C1056.30 313.60 1044.30 313.60 1040.30 314.84C1037.30 315.10 1029.30 324.60 1026.40 331.47C1018.00 348.00 1034.30 369.10 1057.30 371.67C1065.30 371.60 1075.30 369.10 1082.30 365.48C1084.80 363.10 1087.30 362.10 1087.30 363.03C1087.80 362.60 1088.30 365.10 1088.80 368.39C1089.80 374.60 1091.80 377.50 1096.80 378.07C1096.80 377.50 1100.80 377.50 1100.80 378.07C1100.80 377.50 1100.80 373.10 1100.80 373.83C1100.80 373.10 1100.30 369.10 1100.30 369.61C1100.30 369.10 1101.80 372.10 1101.80 372.89C1105.80 380.20 1113.80 385.10 1123.30 385.48C1140.30 385.10 1151.30 370.00 1143.80 356.93C1142.30 353.00 1141.80 352.10 1143.30 353.55C1143.80 353.10 1147.30 354.10 1151.80 355.52C1163.30 357.10 1172.80 355.50 1180.30 350.44C1182.30 348.10 1187.80 345.10 1192.80 343.77C1197.80 341.10 1201.80 338.60 1201.80 338.60C1202.30 337.60 1201.80 336.10 1201.30 335.31C1200.30 333.10 1200.80 331.60 1202.30 327.05C1203.80 323.10 1205.30 319.60 1205.80 319.35C1206.80 318.10 1208.80 315.10 1210.30 312.30C1212.30 308.60 1215.80 304.10 1218.30 301.78C1218.30 301.10 1223.30 296.10 1223.30 296.80C1223.30 296.10 1230.30 296.60 1230.30 297.27C1233.80 297.10 1239.30 297.60 1242.30 298.96C1242.30 298.60 1247.80 299.60 1247.80 300.27C1247.80 299.60 1247.80 306.60 1247.80 307.23C1247.30 314.10 1246.80 315.60 1242.30 317.28C1240.30 317.60 1239.30 317.60 1237.80 317.00C1235.80 315.10 1235.80 315.10 1237.80 312.77C1238.80 310.60 1239.30 308.60 1239.30 308.54C1239.30 306.10 1236.30 304.60 1231.30 305.26C1227.30 304.60 1223.80 307.60 1222.80 312.77C1221.30 318.60 1229.30 325.60 1238.30 325.92C1249.30 325.60 1256.30 318.10 1256.30 307.41C1256.30 301.10 1254.80 297.60 1249.80 293.98C1241.30 286.60 1229.80 284.10 1221.80 287.87C1219.80 288.10 1217.80 288.60 1217.80 289.10C1217.80 288.60 1216.80 287.10 1215.80 285.71C1212.30 278.60 1202.30 276.10 1195.30 281.11C1195.30 280.60 1195.30 280.60 1195.30 281.11M1210.30 283.74C1211.80 284.10 1212.30 285.10 1211.80 285.05C1205.80 281.60 1205.30 281.10 1206.30 281.77C1207.30 281.10 1208.80 282.10 1210.30 283.74C1210.30 283.10 1210.30 283.10 1210.30 283.74M1201.30 303.28C1201.30 302.60 1204.30 303.60 1204.30 303.85C1204.30 303.60 1202.30 307.10 1202.30 307.79C1199.80 313.10 1197.80 312.60 1195.80 304.97C1194.80 301.10 1194.80 301.10 1196.30 301.97C1197.30 302.10 1199.30 302.60 1201.30 303.28C1201.30 302.60 1201.30 302.60 1201.30 303.28M1114.30 332.22C1115.80 333.10 1119.30 336.60 1121.80 340.11C1121.80 339.60 1126.30 344.60 1126.30 345.37C1126.30 344.60 1120.80 345.10 1120.80 345.84C1113.80 346.10 1106.80 350.00 1103.80 355.52C1103.80 355.00 1101.30 358.60 1101.30 359.27C1101.30 358.60 1101.80 355.00 1101.80 355.42C1102.30 352.60 1103.30 349.10 1104.30 347.34C1105.30 344.60 1106.80 340.10 1106.80 337.57C1107.30 334.10 1107.80 331.10 1107.80 330.81C1108.80 328.60 1110.80 329.10 1114.30 332.22C1114.30 331.60 1114.30 331.60 1114.30 332.22M1132.30 351.95C1133.80 352.10 1135.80 353.60 1137.30 355.24C1138.30 356.00 1137.30 355.60 1133.80 354.20C1130.30 351.50 1127.80 350.60 1124.30 351.28">
        </path>
    </g>
    <style>
        path {
            fill: rgb(210, 146, 106);
            /* filter: drop-shadow(0 0 3px rgb(55, 44, 37)); */
        }
    </style>
</svg>
