<svg version="1.0" xmlns="http://www.w3.org/2000/svg" width="1280" height="600" viewBox="0 240 1280 300">

    <g transform="translate(0.000000,640.000000) scale(0.100000,-0.100000)">
        <path d="M10025 4924 c-267 -21 -748 -100 -1090 -179 -528 -122 -853 -226
-1645 -525 -437 -165 -754 -280 -930 -339 l-125 -41 -200 91 c-942 430 -1750
680 -2399 740 -178 16 -513 6 -680 -20 -735 -118 -1265 -485 -1361 -943 -5
-27 -7 -28 -78 -28 -182 0 -491 -34 -691 -76 -589 -124 -847 -395 -824 -867 7
-125 27 -183 110 -309 74 -113 257 -299 378 -385 397 -280 892 -445 1491 -498
605 -53 1293 34 2329 295 402 101 976 269 1333 389 l119 40 221 -98 c122 -55
353 -158 512 -231 587 -267 1063 -475 1071 -468 5 6 53 122 51 125 -1 1 -85
37 -187 81 -394 171 -1460 654 -1460 662 0 3 17 10 38 17 156 49 704 239 1277
443 204 72 384 136 402 142 28 10 44 6 181 -55 1098 -490 2252 -851 2899 -909
374 -33 919 91 1312 298 218 115 430 285 543 434 60 78 132 223 153 305 59
226 -2 525 -149 730 -85 119 -238 246 -382 318 -125 63 -368 130 -564 157
l-86 11 -28 87 c-80 249 -243 414 -491 499 -89 30 -206 57 -365 84 -100 17
-175 22 -380 24 -140 1 -277 1 -305 -1z m624 -164 c330 -49 553 -158 688 -335
46 -61 99 -162 90 -171 -3 -3 -56 0 -119 7 -106 12 -127 11 -333 -15 -686 -86
-1448 -259 -2275 -518 -182 -57 -948 -315 -1185 -398 l-150 -53 -315 154 -315
155 100 41 c55 22 192 80 305 128 1264 536 2328 904 2925 1010 121 22 160 24
295 20 85 -2 215 -13 289 -25z m-6974 -235 c595 -68 1370 -308 2238 -692 81
-36 145 -68 143 -70 -6 -6 -193 -94 -526 -248 -424 -195 -694 -307 -1124 -464
l-50 -18 -70 29 c-332 137 -818 306 -1139 397 -482 137 -829 201 -1205 223
l-203 11 6 31 c11 56 93 210 144 269 228 263 676 468 1151 526 137 17 147 18
330 19 101 1 230 -5 305 -13z m7795 -610 c13 -8 -9 -152 -35 -235 -62 -193
-169 -364 -330 -525 -198 -198 -406 -314 -648 -360 -147 -28 -365 -15 -527 32
-92 26 -253 100 -245 113 2 4 18 10 33 13 42 9 112 66 145 119 34 55 46 145
28 210 -20 71 -72 132 -142 167 -56 28 -71 31 -154 31 -88 0 -95 -2 -141 -32
-72 -49 -108 -124 -108 -226 0 -69 4 -86 38 -155 128 -267 465 -427 897 -427
341 0 647 137 925 415 232 232 385 526 401 773 l6 83 61 -6 c229 -23 386 -51
504 -91 244 -82 391 -218 448 -413 80 -278 2 -513 -247 -745 -260 -242 -690
-434 -1146 -512 -127 -22 -406 -29 -533 -15 -538 62 -1492 351 -2425 734 -272
112 -365 151 -365 157 0 9 811 299 1229 439 724 242 1332 404 1733 461 58 8
583 4 598 -5z m-9410 -386 c398 -35 887 -148 1460 -338 226 -75 606 -216 623
-231 4 -4 -50 -28 -120 -55 -313 -117 -516 -176 -773 -226 -148 -28 -178 -31
-290 -26 -438 19 -910 258 -1113 564 -66 99 -117 231 -117 301 l0 33 108 -6
c59 -3 159 -11 222 -16z m-475 -26 c35 -215 117 -368 285 -533 206 -202 520
-363 835 -430 129 -27 388 -38 518 -21 253 34 584 110 997 230 l275 80 160
-68 c88 -38 272 -120 410 -182 l249 -113 -74 -34 c-711 -323 -1536 -591 -2150
-696 -624 -108 -1272 -79 -1800 80 -524 158 -950 456 -1108 774 l-37 75 1 140
c1 111 5 153 22 202 59 183 217 313 489 402 217 72 562 124 845 130 l77 1 6
-37z m5338 -165 l248 -125 -128 -52 c-899 -366 -1521 -611 -1549 -611 -8 0
-155 62 -327 138 -171 76 -342 152 -379 167 -38 16 -68 32 -68 35 0 3 46 18
103 33 293 79 1115 359 1617 550 l115 44 60 -27 c33 -15 172 -84 308 -152z" />
    </g>
    <style>
        path {
            fill: rgb(210, 146, 106);
        }
    </style>
</svg>
