<!-- https://artdraw.org/custom/svg/79022/ornamental-divider-style-ornate/ -->
<svg id="swirl" xmlns="http://www.w3.org/2000/svg" version="1.1" xmlns:xlink="http://www.w3.org/1999/xlink"
    viewBox="0 0 1280 300" width="100%" height="100%">
    <g>
        <path
            d="M48.10 0.74C31.90 2.80 15.90 13.20 8.30 27.04C-1.90 44.50 -2.70 68.20 6.00 87.23C15.50 107.00 31.90 119.80 56.20 126.33C64.60 128.30 68.60 128.70 81.20 129.13C89.50 128.80 98.70 128.70 102.00 128.43C102.00 128.20 107.70 127.50 107.70 127.73C107.70 127.50 106.20 130.30 106.20 130.63C102.70 137.20 105.20 146.20 111.70 149.93C114.60 151.30 116.20 151.50 121.60 151.23C125.00 150.70 129.30 149.80 131.00 149.43C133.80 148.00 134.50 148.20 138.80 151.43C144.30 154.80 149.00 156.00 154.30 155.43C164.00 153.70 176.50 144.00 188.00 129.33C195.30 120.00 211.00 104.30 223.70 94.13C235.50 84.20 236.00 84.20 228.30 93.33C190.30 137.50 177.70 194.70 196.20 238.82C211.30 274.80 245.50 293.80 283.70 287.31C307.90 282.80 327.30 266.70 335.20 244.02C337.90 235.30 339.90 221.70 339.20 215.72C339.20 215.50 338.40 210.80 338.40 211.12C338.40 210.80 345.20 211.30 345.20 211.52C345.20 211.30 351.80 211.70 351.80 211.92C351.80 211.70 358.90 219.00 358.90 219.22C367.40 227.50 378.90 233.70 390.40 236.22C398.30 237.70 415.90 237.80 423.90 236.82C428.90 235.80 428.90 235.80 435.30 241.22C457.90 260.30 491.40 267.20 514.20 257.22C525.60 252.00 531.20 243.70 532.40 230.92C532.40 230.70 533.20 223.20 533.20 223.42C533.20 223.20 540.20 221.00 540.20 221.22C551.10 217.70 561.60 213.20 577.90 205.12C577.90 204.80 592.90 197.30 592.90 197.62C592.90 197.30 603.60 202.30 603.60 202.52C621.70 210.80 633.60 214.80 639.70 215.12C645.70 214.80 657.60 210.80 675.70 202.52C675.70 202.30 686.40 197.30 686.40 197.62C686.40 197.30 701.40 204.80 701.40 205.12C717.70 213.20 728.20 217.70 739.20 221.22C739.20 221.00 746.20 223.20 746.20 223.42C746.20 223.20 746.90 230.70 746.90 230.92C747.20 235.00 748.40 240.20 749.70 243.12C756.40 257.20 776.90 264.20 802.10 260.71C817.10 258.30 831.70 251.50 844.10 241.22C850.20 235.80 850.20 235.80 855.20 236.82C863.40 237.80 881.10 237.70 888.90 236.22C900.70 233.50 911.70 227.50 920.20 219.22C920.20 219.00 927.70 211.70 927.70 211.92C927.70 211.70 934.20 211.30 934.20 211.52C934.20 211.30 940.70 210.80 940.70 211.12C940.70 210.80 940.20 215.50 940.20 215.72C939.20 221.70 941.20 235.50 944.20 244.02C947.70 253.70 952.20 260.80 960.20 269.31C983.20 292.20 1025.10 295.00 1053.70 275.71C1079.20 258.20 1093.20 226.50 1091.20 189.22C1089.70 155.70 1075.60 121.70 1051.20 93.33C1043.30 84.20 1043.80 84.20 1055.70 94.13C1068.30 104.30 1084.20 120.00 1091.20 129.33C1102.80 144.00 1115.20 153.70 1125.10 155.43C1130.20 156.00 1135.10 154.80 1140.60 151.43C1144.80 148.20 1145.60 148.00 1148.30 149.43C1150.20 149.80 1154.30 150.70 1157.70 151.23C1163.10 151.50 1164.70 151.30 1167.70 149.93C1174.10 146.20 1176.70 137.20 1173.20 130.63C1173.20 130.30 1171.70 127.50 1171.70 127.73C1171.70 127.50 1177.30 128.20 1177.30 128.43C1180.70 128.70 1190.10 128.80 1198.20 129.13C1210.70 128.70 1214.70 128.30 1223.20 126.33C1241.30 121.30 1256.20 112.30 1265.20 100.43C1275.70 86.30 1280.20 71.70 1279.30 55.74C1278.30 39.00 1273.20 26.70 1262.20 16.14C1249.70 3.20 1230.70 -2.40 1212.20 1.04C1191.70 4.50 1180.70 16.50 1180.30 36.24C1180.20 43.80 1182.70 53.70 1184.80 55.34C1185.30 55.30 1186.60 54.70 1187.20 53.84C1189.60 50.50 1195.30 49.00 1200.30 50.64C1205.30 51.70 1211.20 57.70 1212.70 63.44C1217.10 79.00 1205.80 94.50 1185.20 101.53C1169.20 106.50 1143.60 106.80 1124.70 102.23C1112.70 98.80 1093.70 90.30 1097.70 90.03C1106.70 88.70 1110.70 87.20 1113.20 84.63C1116.20 80.80 1116.70 74.20 1114.20 71.24C1113.20 69.20 1113.10 69.70 1113.30 74.33C1114.20 83.50 1110.70 87.20 1099.60 88.53C1094.20 88.70 1093.20 88.50 1089.30 86.03C1080.80 79.70 1073.70 77.50 1073.70 81.23C1073.70 82.30 1082.30 87.50 1084.70 87.73C1085.30 87.50 1088.30 89.00 1091.60 91.03C1106.20 99.30 1124.70 104.70 1146.70 106.83C1176.30 109.30 1198.20 102.70 1208.70 87.73C1217.20 75.30 1217.60 59.50 1209.20 50.94C1206.10 47.00 1202.20 45.50 1196.70 45.74C1192.20 45.50 1190.70 46.00 1188.70 48.24C1188.70 48.00 1186.10 50.50 1186.10 50.84C1186.10 50.50 1184.20 46.20 1184.20 46.54C1182.70 43.20 1182.20 40.00 1182.30 35.14C1182.70 15.00 1198.70 1.50 1221.70 1.74C1255.20 1.50 1277.70 26.30 1275.30 61.24C1272.80 97.80 1250.20 120.20 1208.60 126.83C1203.70 127.30 1195.20 127.70 1186.60 127.43C1173.30 126.80 1171.20 126.30 1162.20 123.43C1151.70 119.70 1149.20 119.30 1152.30 122.93C1153.70 123.80 1157.20 125.00 1161.70 126.03C1168.70 127.00 1169.20 127.20 1171.10 130.73C1174.20 136.80 1171.60 144.30 1165.20 147.33C1160.10 149.20 1151.20 148.80 1147.10 146.63C1147.10 146.30 1143.70 144.30 1143.70 144.53C1143.70 144.30 1136.70 148.50 1136.70 148.73C1130.30 152.30 1129.20 152.70 1124.70 152.53C1117.60 151.70 1112.30 147.50 1088.70 123.73C1063.70 98.20 1057.20 92.30 1041.80 80.83C1019.20 63.30 1016.20 61.70 1014.90 65.34C1014.20 67.50 1018.40 71.20 1028.20 76.33C1038.70 81.30 1039.60 82.20 1049.60 94.23C1072.20 120.80 1086.70 154.50 1089.20 185.32C1090.80 204.80 1083.20 231.80 1070.70 250.82C1068.20 254.20 1062.70 260.70 1058.20 265.21C1044.60 278.70 1028.10 285.50 1009.40 285.71C977.70 285.50 953.20 268.80 944.20 241.22C942.20 234.20 940.70 221.70 941.40 216.02C941.40 215.80 941.90 210.80 941.90 211.12C941.90 210.80 950.70 208.70 950.70 208.92C962.70 205.70 972.70 200.30 980.90 192.62C986.90 186.80 994.40 176.70 995.90 172.32C996.20 171.50 999.20 172.50 1002.90 174.52C1007.70 176.70 1010.70 179.00 1013.20 182.42C1024.30 196.80 1020.70 220.20 1005.90 226.92C1001.20 228.80 995.70 228.50 990.40 226.12C987.70 224.30 982.70 218.70 982.70 216.92C982.70 216.00 982.20 215.50 981.70 215.72C980.90 215.50 980.70 217.30 981.20 221.42C983.70 241.70 994.90 251.80 1016.70 253.42C1031.30 254.20 1042.20 250.20 1051.70 240.72C1060.20 231.80 1067.30 216.30 1073.20 194.62C1076.60 182.30 1075.20 170.70 1070.20 166.73C1067.70 164.30 1067.20 166.20 1069.20 172.92C1071.70 181.30 1071.80 196.80 1069.30 201.42C1068.60 203.00 1066.70 204.70 1065.20 205.32C1062.20 205.80 1056.10 203.80 1054.80 202.02C1054.20 200.70 1053.70 201.00 1052.70 203.62C1051.10 207.50 1047.20 210.50 1043.70 210.72C1032.10 210.50 1028.70 196.80 1036.20 179.32C1041.20 167.30 1042.70 159.20 1042.70 146.23C1042.70 131.80 1040.70 123.30 1035.20 112.33C1024.70 90.30 1005.70 73.00 973.20 55.34C961.70 48.70 956.70 47.00 956.70 50.04C956.70 53.00 963.20 56.80 976.90 61.64C996.20 67.70 1007.70 94.30 1000.70 117.03C998.20 125.30 996.40 126.70 994.20 122.53C990.90 116.20 981.40 105.70 974.90 101.63C972.90 100.20 972.40 98.70 972.20 95.23C971.40 85.30 964.90 75.50 955.20 69.34C950.20 65.70 938.20 61.20 930.70 60.24C927.40 59.30 926.90 58.70 923.20 51.54C920.20 45.00 917.60 41.20 911.70 35.54C905.90 29.50 904.40 27.30 905.60 27.24C906.40 26.70 913.10 26.00 920.20 25.74C950.90 23.00 977.70 28.20 1023.70 45.54C1054.10 56.50 1059.80 57.80 1076.20 57.44C1091.20 56.50 1098.10 54.80 1102.20 50.74C1102.20 50.50 1105.20 47.50 1105.20 47.74C1105.20 47.50 1098.60 47.50 1098.60 47.74C1092.20 47.50 1091.70 47.20 1089.20 44.64C1087.20 42.00 1086.70 40.20 1086.70 36.64C1086.70 27.30 1092.60 20.50 1102.10 18.74C1113.20 16.00 1123.70 20.50 1128.20 30.44C1130.70 34.70 1130.80 36.50 1130.30 41.74C1129.70 49.00 1126.20 55.30 1120.30 59.54C1114.20 63.50 1110.20 64.50 1102.70 64.14C1097.80 63.30 1095.70 63.50 1095.20 64.74C1094.10 66.50 1096.70 67.50 1101.60 67.24C1103.80 66.50 1107.70 66.20 1110.20 66.14C1112.70 65.70 1116.70 64.50 1119.10 63.64C1128.20 58.70 1132.70 51.80 1133.60 41.54C1133.80 35.30 1133.70 33.70 1131.20 29.34C1125.20 16.50 1108.80 12.20 1094.70 19.74C1084.60 24.70 1081.70 40.00 1089.70 47.14C1091.60 48.20 1093.60 49.50 1094.20 49.74C1097.20 49.50 1095.70 51.20 1091.60 53.24C1085.70 55.30 1072.30 56.00 1062.80 54.74C1052.70 52.80 1045.70 50.70 1024.30 42.64C988.20 28.20 970.90 24.50 938.70 24.04C925.90 23.50 914.70 23.70 909.40 24.64C909.40 24.30 900.90 25.50 900.90 25.74C900.90 25.50 892.60 21.50 892.60 21.74C877.70 14.50 870.90 13.00 849.20 13.34C830.90 13.00 829.70 13.00 817.70 16.54C810.70 18.00 802.90 20.20 800.20 21.54C800.20 21.20 795.20 23.00 795.20 23.34C795.20 23.00 786.20 19.20 786.20 19.44C769.10 11.70 745.20 6.00 720.90 3.74C699.10 1.20 666.40 2.20 647.20 6.24C640.70 7.20 638.70 7.20 632.10 6.24C612.90 2.20 580.20 1.20 558.40 3.74C534.20 6.00 510.30 11.70 492.90 19.44C492.90 19.20 484.20 23.00 484.20 23.34C484.20 23.00 479.40 21.30 479.40 21.64C461.30 14.80 442.90 12.00 424.80 13.04C408.80 13.30 398.90 15.70 386.80 21.74C386.80 21.50 378.40 25.50 378.40 25.74C378.40 25.50 369.90 24.30 369.90 24.64C364.40 23.70 353.40 23.50 340.80 24.04C308.40 24.50 291.30 28.20 255.00 42.64C233.70 50.70 226.70 52.80 216.50 54.74C207.00 56.00 193.50 55.30 188.00 53.24C183.80 51.20 182.30 49.50 185.00 49.74C185.80 49.50 187.80 48.20 189.50 47.14C197.70 40.00 194.80 24.70 184.50 19.74C170.50 12.20 154.20 16.50 148.00 29.34C145.80 33.70 145.50 35.30 145.80 41.54C146.70 51.80 151.20 58.70 160.30 63.64C162.80 64.50 166.70 65.70 169.00 66.14C171.50 66.20 175.50 66.50 177.80 67.24C182.50 67.50 185.30 66.50 184.20 64.74C183.50 63.50 181.50 63.30 176.70 64.14C169.00 64.50 165.30 63.50 159.00 59.54C153.30 55.30 149.50 49.00 149.00 41.74C147.50 26.20 161.30 14.80 177.20 18.64C186.80 20.50 192.70 27.20 192.70 36.64C192.70 40.20 192.00 42.00 190.00 44.64C187.70 47.20 187.00 47.50 180.80 47.74C180.80 47.50 174.30 47.50 174.30 47.74C174.30 47.50 177.20 50.50 177.20 50.74C181.30 54.80 188.20 56.50 203.20 57.44C219.30 57.80 225.30 56.50 255.20 45.74C293.20 31.30 308.40 27.50 333.70 25.74C344.90 24.50 368.70 25.50 373.80 27.24C374.90 27.30 373.40 29.50 367.70 35.54C361.80 41.20 358.90 45.00 355.90 51.54C352.40 58.70 351.90 59.30 348.70 60.24C340.90 61.20 329.20 65.70 324.20 69.34C314.40 75.50 307.90 85.30 307.30 95.23C306.90 98.80 306.40 100.20 303.90 101.83C298.90 105.00 289.40 114.80 286.40 120.53C282.80 126.70 281.40 126.20 278.70 117.03C274.80 104.20 276.70 88.20 283.40 77.73C289.30 68.30 294.90 64.00 305.40 60.64C315.40 56.80 322.70 52.50 322.70 50.24C322.70 47.00 317.90 48.50 306.20 55.34C273.40 73.00 254.70 90.30 244.00 112.33C238.50 123.30 236.70 131.80 236.70 146.23C236.70 159.00 238.30 167.20 243.00 178.82C248.70 192.70 248.50 202.50 242.70 207.92C238.70 211.30 233.80 211.30 229.80 208.22C228.30 206.70 226.50 204.30 226.20 203.02C225.50 200.30 225.30 200.30 224.50 201.92C223.30 203.80 217.30 205.80 214.20 205.32C212.80 204.70 210.80 203.00 210.00 201.42C207.50 196.80 207.50 181.30 210.00 172.92C212.00 166.20 211.80 164.30 209.20 166.73C203.00 171.70 202.80 183.20 208.00 201.72C219.20 239.70 235.50 255.00 262.90 253.42C280.20 252.20 291.40 244.70 295.90 231.72C297.90 225.30 298.90 215.50 297.80 215.72C297.20 215.50 296.70 216.00 296.70 216.92C296.70 218.70 291.80 224.30 288.90 226.12C274.30 233.20 259.70 221.30 259.70 202.22C259.70 189.50 265.40 179.70 276.40 174.52C279.90 172.50 283.20 171.50 283.40 172.32C284.90 176.70 292.40 186.80 298.40 192.62C306.80 200.30 316.40 205.70 328.80 208.92C328.80 208.70 337.40 210.80 337.40 211.12C337.40 210.80 337.90 215.80 337.90 216.02C338.80 221.70 337.30 234.20 334.90 241.22C325.90 268.80 301.40 285.50 269.90 285.71C242.00 285.50 216.70 268.30 202.00 239.22C188.30 212.20 186.50 185.20 196.30 154.33C203.70 130.80 218.20 106.20 235.30 87.73C240.20 82.30 243.30 80.00 250.80 76.53C260.80 71.30 265.30 67.50 264.40 65.34C262.90 61.70 260.20 63.30 237.50 80.83C222.00 92.30 215.70 98.20 190.70 123.73C167.00 147.30 161.80 151.70 154.70 152.53C150.00 152.70 147.50 151.80 139.00 146.63C139.00 146.30 135.70 144.30 135.70 144.53C135.70 144.30 132.30 146.30 132.30 146.63C128.30 148.80 119.20 149.20 114.20 147.33C110.20 145.50 106.70 140.30 106.70 136.73C106.70 135.20 107.50 132.30 108.50 130.73C110.10 127.20 110.60 127.00 117.60 126.03C122.20 125.00 125.70 123.80 127.00 122.93C130.20 119.30 127.60 119.70 117.20 123.43C108.10 126.30 106.00 126.80 92.70 127.43C60.90 128.30 36.70 120.20 20.40 102.83C10.70 92.00 5.20 78.00 4.00 61.24C1.70 26.30 24.20 1.50 57.70 1.74C80.70 1.50 96.70 15.20 97.00 35.14C97.00 39.50 96.20 43.50 95.20 46.54C95.20 46.20 93.20 50.50 93.20 50.84C93.20 50.50 90.70 48.00 90.70 48.34C86.00 43.50 75.20 44.70 70.10 50.94C58.70 63.00 63.70 85.80 80.20 97.23C92.70 105.50 110.20 108.70 133.00 106.83C152.30 104.80 167.20 101.00 182.20 93.93C188.80 90.50 196.80 86.70 200.00 85.43C206.00 82.30 207.50 79.50 203.20 79.73C200.20 79.50 196.00 81.50 190.00 86.03C186.00 88.50 185.30 88.70 179.80 88.53C168.80 87.20 165.00 83.50 166.00 74.33C166.30 69.70 166.30 69.20 165.00 71.24C162.80 74.20 163.30 80.80 166.20 84.63C168.70 87.20 172.50 88.70 181.70 90.03C185.80 90.30 166.80 98.80 154.70 102.23C129.80 108.30 98.70 105.80 82.20 96.33C72.70 90.70 65.70 79.50 65.70 70.84C65.70 57.30 76.20 47.20 86.70 50.64C88.70 51.00 91.20 52.50 92.10 53.84C94.00 56.30 95.20 55.50 97.20 49.44C99.70 41.70 99.50 29.70 96.70 22.54C90.70 6.20 70.60 -2.70 48.10 0.74C48.10 0.50 48.10 0.50 48.10 0.74M627.40 8.64C627.40 8.30 639.70 10.50 639.70 10.84C639.70 10.50 652.40 8.20 652.40 8.54C663.70 6.20 668.20 6.00 692.70 6.24C723.60 6.00 734.40 7.20 757.20 13.24C770.40 16.30 789.70 23.20 789.70 24.74C789.70 24.80 786.70 26.50 782.90 28.24C779.20 29.50 770.40 33.70 763.20 37.54C763.20 37.20 750.40 43.70 750.40 43.94C750.40 43.70 740.20 41.20 740.20 41.44C709.70 33.50 670.70 33.00 645.40 40.44C640.20 41.50 639.20 41.50 633.90 40.44C621.60 36.70 608.40 35.20 589.70 35.54C569.60 35.20 556.20 36.80 539.10 41.34C539.10 41.00 528.90 43.50 528.90 43.84C528.90 43.50 517.60 37.80 517.60 38.14C511.30 34.70 502.20 30.50 497.20 28.64C497.20 28.30 488.20 24.50 488.20 24.84C488.20 24.50 492.90 22.50 492.90 22.84C508.30 16.00 528.20 10.70 547.20 8.34C563.90 5.70 564.60 5.70 590.70 6.24C610.60 6.20 617.40 6.70 627.40 8.64C627.40 8.30 627.40 8.30 627.40 8.64M456.70 17.74C466.40 19.80 477.80 23.30 478.90 24.64C479.40 24.70 475.80 27.50 470.90 30.54C465.90 33.20 458.90 38.00 455.20 41.14C455.20 40.80 448.30 46.20 448.30 46.54C448.30 46.20 443.20 44.20 443.20 44.54C432.40 39.70 406.40 31.50 395.30 29.24C395.30 29.00 383.40 26.20 383.40 26.44C383.40 26.20 389.90 22.70 389.90 23.04C396.20 19.70 406.90 16.50 415.20 15.34C422.40 14.00 448.30 15.30 456.70 17.74C456.70 17.50 456.70 17.50 456.70 17.74M874.90 17.64C879.10 18.50 885.60 20.80 889.20 23.04C889.20 22.70 895.90 26.20 895.90 26.44C895.90 26.20 884.10 29.00 884.10 29.24C872.70 31.50 846.90 39.70 836.20 44.54C836.20 44.20 831.10 46.20 831.10 46.54C831.10 46.20 824.20 40.80 824.20 41.14C820.20 38.00 813.20 33.20 808.40 30.54C803.60 27.50 799.90 24.70 800.40 24.64C802.20 22.70 824.90 16.50 835.20 15.34C842.70 14.00 867.40 15.30 874.90 17.64C874.90 17.30 874.90 17.30 874.90 17.64M494.90 30.84C515.90 39.70 526.90 46.50 521.40 46.74C519.40 46.50 498.30 57.00 492.80 61.04C492.80 60.70 487.40 64.20 487.40 64.54C487.40 64.20 473.90 57.80 473.90 58.14C466.40 54.20 458.40 50.50 456.30 49.94C456.30 49.70 452.40 47.80 452.40 48.14C452.40 47.80 457.40 43.50 457.40 43.84C462.40 39.30 482.90 26.50 484.80 26.74C485.20 26.50 489.80 28.20 494.90 30.84C494.90 30.50 494.90 30.50 494.90 30.84M805.20 32.64C810.70 35.70 817.90 40.50 821.10 43.34C821.10 43.00 827.10 47.70 827.10 48.04C827.10 47.70 823.10 49.50 823.10 49.84C820.90 50.50 812.90 54.20 805.40 58.14C805.40 57.80 791.90 64.20 791.90 64.54C791.90 64.20 786.60 60.70 786.60 61.04C781.10 57.00 759.90 46.50 757.90 46.74C754.40 46.50 756.60 44.20 763.90 40.64C773.70 35.20 792.70 26.50 794.20 26.74C794.70 26.50 799.70 29.20 805.20 32.64C805.20 32.30 805.20 32.30 805.20 32.64M391.40 30.74C396.30 31.50 404.20 33.50 408.90 35.24C418.40 37.70 444.40 47.00 445.40 48.24C445.80 48.20 442.70 52.00 438.40 56.54C434.40 60.50 429.90 65.50 428.40 67.64C428.40 67.30 425.90 70.70 425.90 71.04C425.90 70.70 416.40 68.00 416.40 68.34C399.20 63.20 376.40 59.50 363.40 59.74C359.90 59.50 357.70 59.00 357.70 58.64C357.70 57.70 359.40 54.00 361.40 50.34C365.40 42.50 377.90 28.50 380.90 28.74C381.90 28.50 386.70 29.30 391.40 30.74C391.40 30.50 391.40 30.50 391.40 30.74M907.10 35.94C913.40 42.20 921.70 55.00 921.70 58.64C921.70 59.00 919.40 59.50 915.90 59.74C902.90 59.50 880.20 63.20 862.70 68.34C862.70 68.00 853.40 70.70 853.40 71.04C853.40 70.70 850.90 67.30 850.90 67.64C849.40 65.50 844.90 60.50 840.70 56.54C836.70 52.00 833.60 48.20 833.90 48.24C836.10 45.70 873.40 33.70 888.70 30.44C899.20 27.70 899.20 27.70 907.10 35.94C907.10 35.70 907.10 35.70 907.10 35.94M611.40 37.84C616.70 38.20 625.20 39.70 630.40 41.24C630.40 41.00 639.70 43.30 639.70 43.64C639.70 43.30 648.90 41.00 648.90 41.24C675.90 34.20 714.70 35.20 743.70 44.04C743.70 43.70 748.10 45.00 748.10 45.34C748.10 45.00 736.20 51.80 736.20 52.14C729.60 55.70 716.60 63.50 707.20 69.54C707.20 69.20 690.40 79.70 690.40 80.03C690.40 79.70 665.10 67.00 665.10 67.24C665.10 67.00 639.70 54.20 639.70 54.44C639.70 54.20 614.20 67.00 614.20 67.24C614.20 67.00 588.90 79.70 588.90 80.03C588.90 79.70 572.10 69.20 572.10 69.54C562.70 63.50 549.70 55.70 543.20 52.14C543.20 51.80 531.20 45.00 531.20 45.34C531.20 45.00 535.70 43.70 535.70 44.04C542.40 41.70 559.20 38.50 567.70 37.84C578.70 36.30 600.40 36.20 611.40 37.84C611.40 37.50 611.40 37.50 611.40 37.84M539.90 54.44C561.60 66.70 584.90 81.70 583.90 82.73C583.60 83.00 576.40 87.00 568.40 91.73C568.40 91.50 553.40 99.70 553.40 99.93C553.40 99.70 538.10 91.00 538.10 91.23C529.60 86.30 515.60 78.70 506.90 74.54C498.30 69.70 490.90 66.00 490.70 66.04C489.90 65.00 494.90 61.70 504.90 56.74C512.90 52.20 524.90 46.70 526.40 46.74C526.70 46.50 532.70 49.80 539.90 54.44C539.90 54.20 539.90 54.20 539.90 54.44M770.20 54.74C783.60 61.20 789.70 64.80 788.70 66.04C788.40 66.00 781.10 69.70 772.40 74.54C763.70 78.70 749.70 86.30 741.20 91.23C741.20 91.00 725.90 99.70 725.90 99.93C725.90 99.70 710.90 91.50 710.90 91.73C702.90 87.00 695.70 83.00 695.40 82.73C694.40 81.70 710.70 71.00 735.70 56.54C746.90 49.50 752.70 46.70 754.20 47.34C755.20 47.30 762.40 50.70 770.20 54.74C770.20 54.50 770.20 54.50 770.20 54.74M469.40 58.44C477.30 61.70 483.90 65.00 483.90 65.64C484.30 65.70 479.80 70.30 473.90 76.03C473.90 75.70 463.70 85.70 463.70 85.93C463.70 85.70 454.40 81.70 454.40 81.93C449.40 79.50 442.30 76.70 438.70 75.73C434.90 74.20 431.80 72.70 431.30 72.64C430.30 71.50 435.90 64.00 444.40 55.54C450.90 48.70 448.20 48.30 469.40 58.44C469.40 58.20 469.40 58.20 469.40 58.44M842.90 64.64C846.10 68.50 848.40 72.00 847.90 72.74C847.60 72.80 844.20 74.20 840.70 75.73C837.10 76.70 829.90 79.50 824.90 81.93C824.90 81.70 815.60 85.70 815.60 85.93C815.60 85.70 806.40 76.80 806.40 77.13C801.20 72.00 796.60 67.50 795.70 67.14C794.20 65.50 796.20 64.20 816.20 55.64C816.20 55.30 829.20 49.50 829.20 49.84C829.20 49.50 833.10 53.20 833.10 53.54C835.20 55.20 839.60 60.20 842.90 64.64C842.90 64.30 842.90 64.30 842.90 64.64M659.20 69.14C670.20 74.50 680.60 80.00 682.40 81.33C682.40 81.20 685.40 83.20 685.40 83.33C685.40 83.20 670.90 92.30 670.90 92.63C670.90 92.30 656.40 101.80 656.40 102.03C656.40 101.80 647.90 97.70 647.90 97.83C647.90 97.70 639.70 93.50 639.70 93.73C639.70 93.50 631.40 97.70 631.40 97.83C631.40 97.70 622.90 101.80 622.90 102.03C622.90 101.80 608.40 92.30 608.40 92.63C608.40 92.30 593.70 83.00 593.70 83.23C593.70 83.00 596.40 81.50 596.40 81.73C597.90 80.70 608.10 75.20 619.20 69.54C630.20 63.50 639.20 58.50 639.20 58.84C639.20 58.50 648.20 63.20 659.20 69.14C659.20 68.80 659.20 68.80 659.20 69.14M350.70 62.44C350.70 62.70 349.90 66.50 349.20 71.04C348.40 75.00 347.70 80.70 347.70 83.33C347.70 88.00 348.70 87.50 335.70 89.73C331.40 90.20 324.40 92.00 320.30 93.83C315.90 95.20 312.20 96.30 311.90 96.33C310.90 95.20 313.90 84.80 316.20 81.13C321.20 72.30 331.40 65.50 342.90 63.24C350.70 61.20 350.70 61.20 350.70 62.44C350.70 62.20 350.70 62.20 350.70 62.44M375.30 63.24C381.80 63.80 390.90 65.30 395.40 66.74C404.90 68.50 421.90 73.20 422.40 74.33C422.90 74.20 421.90 76.20 420.90 78.53C419.40 80.20 416.90 85.20 414.90 89.23C412.90 92.80 411.40 96.20 411.20 96.53C410.90 96.30 405.90 95.20 399.40 93.73C387.20 90.30 367.90 87.50 358.40 87.73C358.40 87.50 352.70 87.50 352.70 87.73C352.70 87.50 352.70 84.20 352.70 84.33C352.70 80.30 355.40 63.70 356.30 62.64C356.90 61.00 361.90 61.20 375.30 63.24C375.30 63.00 375.30 63.00 375.30 63.24M924.40 67.74C925.20 70.50 925.90 76.20 926.20 80.43C926.20 80.20 926.90 87.50 926.90 87.73C926.90 87.50 920.90 87.50 920.90 87.73C911.20 87.50 892.20 90.30 879.70 93.73C873.40 95.20 868.20 96.30 868.20 96.53C867.90 96.20 866.20 92.80 864.20 89.23C862.40 85.20 859.70 80.20 858.40 78.53C857.20 76.20 856.40 74.20 856.70 74.33C857.40 73.30 877.40 67.70 885.70 66.24C896.60 63.70 912.40 61.50 918.20 62.04C918.20 61.70 923.20 62.00 923.20 62.24C923.20 62.00 924.40 67.50 924.40 67.74C924.40 67.50 924.40 67.50 924.40 67.74M939.20 63.94C948.70 66.00 958.70 73.20 963.20 81.13C965.40 84.80 968.40 95.20 967.40 96.33C967.20 96.30 963.40 95.20 959.20 93.83C954.70 92.00 947.70 90.20 943.70 89.73C930.70 87.50 931.70 88.00 931.70 83.33C931.70 80.70 930.90 75.00 930.20 71.04C929.40 66.50 928.70 62.70 928.70 62.54C928.70 61.50 932.40 62.00 939.20 63.94C939.20 63.70 939.20 63.70 939.20 63.94M285.30 72.44C277.40 82.70 272.70 95.20 272.70 106.03C272.70 112.70 275.70 122.30 278.90 127.03C281.40 130.20 281.40 130.30 279.90 136.33C277.80 145.80 278.70 160.70 281.90 168.72C282.40 169.70 281.40 170.50 277.40 172.12C273.90 173.20 270.40 175.50 266.40 179.62C261.90 184.20 260.40 186.30 258.80 192.12C255.20 203.70 256.40 214.80 262.70 223.52C266.70 228.80 271.90 231.50 279.20 231.72C284.90 231.50 292.30 228.70 293.40 226.22C293.70 225.20 294.30 224.50 294.80 224.72C295.90 224.50 292.90 231.80 289.90 236.82C286.40 242.20 278.90 248.30 273.40 250.22C259.40 254.20 242.80 250.00 230.50 239.62C223.20 233.20 214.80 219.30 211.30 208.02C210.50 205.80 210.80 205.70 213.50 207.02C215.80 207.70 217.80 207.70 220.50 207.12C224.00 206.00 224.50 206.00 225.00 207.82C226.30 212.30 235.30 214.30 241.50 211.32C249.80 206.80 250.80 193.20 244.30 174.42C238.50 157.50 237.20 142.30 240.20 128.23C243.20 113.70 255.70 93.70 269.30 82.23C274.30 77.50 287.40 67.50 288.40 67.74C288.70 67.50 287.30 69.50 285.30 72.44C285.30 72.20 285.30 72.20 285.30 72.44M504.20 75.63C520.60 83.80 550.70 100.50 550.70 101.23C550.70 101.50 523.10 116.50 522.10 116.73C521.60 116.50 516.40 113.70 510.70 110.63C504.90 107.00 492.70 100.30 483.40 95.83C483.40 95.70 466.80 86.80 466.80 87.13C466.80 86.80 469.40 83.70 469.40 83.83C472.40 79.70 486.40 67.50 487.90 67.74C488.40 67.50 495.90 71.00 504.20 75.63C504.20 75.30 504.20 75.30 504.20 75.63M799.90 74.14C803.90 77.30 808.60 81.80 809.90 83.83C809.90 83.70 812.60 86.80 812.60 87.13C812.60 86.80 795.90 95.70 795.90 95.83C786.70 100.30 774.40 107.00 768.70 110.63C762.90 113.70 757.70 116.50 757.20 116.73C756.20 116.50 728.70 101.50 728.70 101.23C728.70 99.80 789.20 67.50 791.20 67.74C791.90 67.50 795.70 70.30 799.90 74.14C799.90 73.80 799.90 73.80 799.90 74.14M1007.70 80.33C1029.20 98.30 1040.70 119.80 1040.70 143.23C1040.70 154.00 1039.20 162.20 1035.20 174.42C1028.70 193.20 1029.70 206.80 1037.70 211.32C1044.10 214.30 1053.20 212.30 1054.30 207.82C1054.70 206.00 1055.30 206.00 1058.70 207.12C1061.70 207.70 1063.70 207.70 1065.70 207.02C1068.70 205.70 1068.70 205.80 1068.20 208.02C1064.70 219.30 1056.20 233.20 1048.80 239.62C1036.70 250.00 1019.70 254.20 1005.90 250.22C1000.40 248.30 992.70 242.20 989.20 236.82C986.20 231.80 983.40 224.50 984.70 224.72C985.20 224.50 985.70 225.20 985.90 226.22C987.20 228.70 994.20 231.50 1000.40 231.72C1007.70 231.50 1013.20 228.70 1017.40 222.42C1022.90 213.80 1024.20 203.20 1020.70 192.12C1018.90 186.30 1017.40 184.20 1012.70 179.62C1008.70 175.50 1005.40 173.20 1001.90 172.12C997.90 170.50 996.70 169.70 997.20 168.72C1000.70 160.70 1001.70 145.80 999.20 136.33C997.90 130.30 997.90 130.20 1000.40 127.03C1003.70 122.30 1006.70 112.70 1006.70 106.03C1006.70 95.00 1003.20 85.20 994.90 73.83C994.90 73.50 990.40 67.20 990.40 67.44C990.40 67.20 995.20 70.50 995.20 70.74C997.90 72.20 1003.70 76.70 1007.70 80.33C1007.70 80.00 1007.70 80.00 1007.70 80.33M446.90 83.33C450.40 84.70 454.90 86.70 456.90 87.83C456.90 87.70 460.40 89.50 460.40 89.73C460.40 89.50 454.20 99.00 454.20 99.23C450.70 104.20 447.70 109.00 447.40 109.73C447.30 110.00 441.20 108.00 433.80 105.23C426.40 102.00 419.80 99.50 418.90 99.73C415.40 99.50 417.40 93.50 425.40 80.03C425.40 79.70 427.80 75.50 427.80 75.83C427.80 75.50 434.30 78.00 434.30 78.33C437.90 79.30 443.70 81.70 446.90 83.33C446.90 83.20 446.90 83.20 446.90 83.33M858.20 87.93C862.70 96.30 863.20 99.50 860.40 99.73C859.60 99.50 852.90 102.00 845.60 105.23C838.20 108.00 832.10 110.00 831.90 109.73C831.70 109.00 828.60 104.20 825.10 99.13C821.40 93.70 818.70 89.20 818.90 89.23C819.20 88.70 842.40 79.00 847.20 77.43C851.90 75.20 851.70 75.00 858.20 87.93C858.20 87.70 858.20 87.70 858.20 87.93M604.40 94.63C611.90 99.30 618.10 103.70 617.90 104.23C617.90 104.30 611.20 108.20 603.20 112.53C603.20 112.30 588.70 119.80 588.70 120.03C588.70 119.80 574.20 111.50 574.20 111.73C566.20 107.00 559.70 103.00 559.70 102.83C559.70 101.80 587.70 85.70 589.40 85.83C590.10 85.50 596.70 89.50 604.40 94.63C604.40 94.30 604.40 94.30 604.40 94.63M705.10 93.93C713.10 98.20 719.70 102.20 719.70 102.83C719.70 103.00 713.10 107.00 705.10 111.73C705.10 111.50 690.60 119.80 690.60 120.03C690.60 119.80 676.20 112.30 676.20 112.63C668.40 108.30 661.70 104.70 661.70 104.33C661.40 103.20 687.40 85.70 689.20 85.83C689.90 85.50 696.90 89.20 705.10 93.93C705.10 93.70 705.10 93.70 705.10 93.93M348.20 95.43C350.40 111.70 357.80 127.80 368.40 139.93C368.40 139.70 371.80 143.30 371.80 143.63C371.80 143.30 367.40 145.70 367.40 145.83C361.90 148.30 352.40 157.50 349.30 163.13C342.30 174.80 341.90 190.70 348.20 204.12C349.40 206.70 350.40 209.20 350.30 209.52C349.90 209.50 347.30 209.30 344.20 209.02C344.20 208.80 338.40 208.00 338.40 208.22C338.40 208.00 336.90 202.80 336.90 203.02C333.40 189.00 324.40 177.70 312.90 172.42C306.90 169.50 304.90 169.00 296.70 169.02C296.70 168.80 287.20 168.50 287.20 168.72C287.20 168.50 285.90 164.80 285.90 165.03C283.40 157.70 282.40 147.80 283.40 141.13C283.90 137.20 284.80 134.20 284.90 134.13C285.20 133.70 287.40 134.30 289.80 135.73C299.70 139.80 313.80 137.30 321.40 129.63C325.30 125.70 329.70 117.20 329.70 113.93C329.70 111.80 329.20 111.50 326.40 111.73C322.30 111.50 317.20 108.30 314.70 104.53C313.40 102.50 312.70 100.70 312.70 100.53C312.70 99.00 328.70 93.50 336.40 92.33C347.90 90.00 347.40 89.80 348.20 95.43C348.20 95.20 348.20 95.20 348.20 95.43M383.90 92.73C393.90 94.20 408.30 97.80 409.40 99.03C409.40 99.00 408.30 103.30 406.40 108.83C404.90 113.70 402.70 122.00 401.80 127.13C401.80 126.80 399.90 135.80 399.90 136.13C399.90 135.80 391.40 137.70 391.40 137.83C386.70 138.70 381.20 139.80 379.30 140.73C377.30 141.20 375.30 141.30 374.80 141.33C372.90 139.80 364.40 127.80 361.70 122.73C358.20 115.50 354.90 104.80 353.90 96.93C353.90 96.70 352.90 90.50 352.90 90.73C352.90 90.50 362.80 90.50 362.80 90.73C367.90 90.50 377.40 91.30 383.90 92.73C383.90 92.50 383.90 92.50 383.90 92.73M504.40 112.43C510.40 115.80 515.90 119.00 516.10 119.63C516.20 119.70 510.80 123.20 503.90 126.93C503.90 126.70 491.20 133.30 491.20 133.63C491.20 133.30 477.90 126.20 477.90 126.43C470.90 122.20 461.70 117.50 457.80 115.83C453.90 113.70 450.70 111.70 450.70 111.43C450.70 109.80 457.40 98.80 460.90 94.43C460.90 94.20 463.90 90.30 463.90 90.63C463.90 90.30 478.40 98.20 478.40 98.33C486.40 102.30 498.30 108.70 504.40 112.43C504.40 112.20 504.40 112.20 504.40 112.43M824.70 104.03C826.90 107.70 828.70 111.00 828.70 111.63C828.70 111.80 825.40 113.70 821.60 115.83C817.70 117.50 808.40 122.20 801.20 126.43C801.20 126.20 788.20 133.30 788.20 133.63C788.20 133.30 775.40 126.70 775.40 126.93C768.60 123.20 763.10 119.70 763.20 119.53C763.90 118.30 785.70 106.00 801.70 97.83C801.70 97.70 815.20 90.50 815.20 90.73C815.20 90.50 817.90 93.70 817.90 93.93C819.40 95.50 822.60 100.20 824.70 104.03C824.70 103.80 824.70 103.80 824.70 104.03M925.40 96.93C923.70 110.20 918.20 123.80 910.20 134.43C907.70 137.70 905.10 140.70 904.60 141.33C904.10 141.30 902.10 141.20 900.10 140.73C898.20 139.80 892.70 138.70 887.90 137.83C887.90 137.70 879.40 135.80 879.40 136.13C879.40 135.80 877.40 126.50 877.40 126.73C876.40 121.30 874.20 113.00 872.60 108.43C870.90 103.30 869.70 99.20 869.90 99.13C870.20 98.70 873.40 97.50 877.20 96.63C888.90 93.20 904.70 90.70 915.70 90.83C915.70 90.70 926.40 90.50 926.40 90.73C926.40 90.50 925.40 96.70 925.40 96.93C925.40 96.70 925.40 96.70 925.40 96.93M942.20 92.23C950.70 93.50 966.70 98.80 966.70 100.53C966.70 100.70 965.70 102.50 964.70 104.53C962.20 108.30 957.20 111.50 952.90 111.73C950.20 111.50 949.70 111.80 949.70 113.93C949.70 117.20 954.20 125.70 957.70 129.63C965.70 137.30 979.70 139.80 989.70 135.73C991.90 134.30 994.20 133.70 994.40 134.13C994.70 134.20 995.20 137.20 995.70 141.13C996.90 147.80 995.90 157.70 993.40 165.03C993.40 164.80 992.20 168.50 992.20 168.72C992.20 168.50 982.70 168.80 982.70 169.02C974.40 169.00 972.20 169.50 966.40 172.42C954.70 177.70 945.70 189.00 942.20 203.02C942.20 202.80 940.90 208.00 940.90 208.22C940.90 208.00 935.20 208.80 935.20 209.02C932.20 209.30 929.20 209.50 929.20 209.52C928.90 209.20 929.90 206.70 931.20 204.12C937.40 190.70 937.20 174.80 930.20 163.13C926.90 157.50 917.20 148.30 911.70 145.83C911.70 145.70 907.60 143.30 907.60 143.63C907.60 143.30 910.90 139.70 910.90 139.93C921.60 127.80 928.90 111.70 931.20 95.43C931.40 92.70 932.20 90.50 932.70 90.73C933.20 90.50 937.40 91.20 942.20 92.23C942.20 92.00 942.20 92.00 942.20 92.23M644.70 102.43C647.40 103.80 649.70 105.20 649.70 105.73C649.70 106.30 641.10 111.50 639.70 111.73C638.20 111.50 629.70 106.30 629.70 105.73C629.70 105.20 638.70 99.70 639.60 99.73C639.70 99.50 642.10 100.70 644.70 102.43C644.70 102.20 644.70 102.20 644.70 102.43M431.20 106.83C437.80 109.30 443.80 111.80 444.40 112.53C445.40 113.00 445.20 114.30 443.20 119.03C441.90 121.80 439.80 127.50 438.40 131.33C438.40 131.20 436.40 137.70 436.40 137.93C436.40 137.70 431.30 137.20 431.30 137.33C428.40 136.80 421.80 136.20 416.40 136.13C407.40 135.20 406.70 135.00 406.70 133.33C406.80 129.80 410.40 113.70 412.80 106.93C415.20 99.30 413.40 99.30 431.20 106.83C431.20 106.70 431.20 106.70 431.20 106.83M866.60 106.93C868.90 113.70 872.60 129.80 872.70 133.33C872.70 135.00 871.90 135.20 862.90 136.13C857.60 136.20 850.90 136.80 848.10 137.33C848.10 137.20 842.90 137.70 842.90 137.93C842.90 137.70 840.70 130.80 840.70 131.13C839.40 127.20 837.40 121.70 836.10 118.83C834.70 115.70 833.70 113.20 833.70 113.23C833.70 112.30 861.90 100.80 863.90 100.83C864.20 100.50 865.40 103.30 866.60 106.93C866.60 106.70 866.60 106.70 866.60 106.93M309.90 106.73C311.90 110.30 316.90 113.30 322.40 114.33C324.80 114.30 326.70 115.20 326.70 115.93C326.70 118.00 322.40 124.50 318.90 127.93C313.90 132.00 305.30 135.50 298.90 135.73C293.40 135.50 286.70 132.00 286.70 129.53C286.70 124.70 294.80 113.00 301.90 107.63C304.70 105.30 307.20 103.50 307.40 103.73C307.90 103.50 308.90 104.80 309.90 106.73C309.90 106.50 309.90 106.50 309.90 106.73M573.90 114.23C580.40 117.70 585.40 121.20 584.90 121.83C584.60 122.00 577.70 125.80 569.90 130.23C569.90 130.00 555.40 137.70 555.40 137.83C555.40 137.70 548.90 133.70 548.90 133.83C531.10 122.70 528.40 120.80 528.40 120.33C528.40 119.70 534.70 115.70 542.40 111.73C542.40 111.50 556.20 103.70 556.20 103.93C556.20 103.70 559.20 105.50 559.20 105.73C560.90 106.50 567.40 110.30 573.90 114.23C573.90 114.00 573.90 114.00 573.90 114.23M739.40 113.23C746.20 116.70 751.40 120.20 750.90 120.83C750.20 121.30 728.70 134.80 725.40 136.83C724.10 137.30 720.40 135.80 709.40 130.23C701.60 125.80 694.70 122.00 694.40 121.83C693.90 121.20 700.20 116.80 708.40 112.43C721.40 104.70 723.40 103.80 725.20 105.13C726.20 105.70 732.70 109.20 739.40 113.23C739.40 113.00 739.40 113.00 739.40 113.23M977.40 107.63C984.70 113.00 992.70 124.70 992.70 129.53C992.70 132.00 985.70 135.50 980.40 135.73C974.20 135.50 965.20 132.00 960.40 127.93C956.90 124.50 952.70 118.00 952.70 115.93C952.70 115.20 954.70 114.30 956.90 114.33C962.40 113.30 967.20 110.30 969.40 106.73C970.40 104.80 971.40 103.50 971.90 103.73C972.20 103.50 974.70 105.30 977.40 107.63C977.40 107.30 977.40 107.30 977.40 107.63M632.40 112.33C632.40 112.20 639.70 116.70 639.70 116.83C639.70 116.70 647.20 112.00 647.20 112.23C647.20 112.00 654.60 107.30 654.60 107.53C654.60 107.30 669.20 115.00 669.20 115.23C677.20 119.20 683.70 123.00 683.70 123.53C683.70 123.70 677.90 127.30 670.70 131.53C670.70 131.30 657.70 138.50 657.70 138.73C657.70 138.50 648.70 133.80 648.70 134.03C648.70 133.80 639.70 129.00 639.70 129.23C639.70 129.00 630.60 133.80 630.60 134.03C630.60 133.80 621.60 138.50 621.60 138.73C621.60 138.50 608.60 131.30 608.60 131.53C601.40 127.30 595.70 123.70 595.90 123.43C596.20 122.50 623.40 107.70 624.60 107.73C624.70 107.50 628.20 109.70 632.40 112.33C632.40 112.20 632.40 112.20 632.40 112.33M461.30 120.83C478.70 129.70 486.90 134.70 485.90 135.73C484.40 136.80 464.40 145.70 462.80 145.93C461.40 145.70 442.80 139.70 441.80 139.13C440.90 138.20 447.90 114.50 448.90 114.73C449.30 114.50 454.70 117.30 461.30 120.83C461.30 120.70 461.30 120.70 461.30 120.83M832.70 120.43C834.90 126.20 837.70 136.20 837.70 138.33C837.70 138.70 834.90 140.00 831.60 141.23C828.20 141.80 823.60 143.50 821.20 144.73C821.20 144.50 816.90 146.30 816.90 146.53C816.90 146.30 805.60 141.30 805.60 141.63C799.40 138.70 793.90 136.20 793.40 135.83C792.70 135.00 794.70 133.30 798.20 131.53C806.60 126.70 829.10 114.70 829.90 114.83C830.20 114.50 831.40 117.20 832.70 120.43C832.70 120.20 832.70 120.20 832.70 120.43M535.60 131.03C542.90 135.30 548.90 139.50 548.90 140.23C548.70 140.70 543.40 143.80 536.90 147.43C536.90 147.20 525.20 153.30 525.20 153.63C525.20 153.30 510.40 144.70 510.40 144.93C510.40 144.70 495.80 136.00 495.80 136.23C495.80 136.00 508.40 129.30 508.40 129.63C515.40 125.80 521.40 122.70 521.70 122.93C521.90 122.70 528.20 126.30 535.60 131.03C535.60 130.80 535.60 130.80 535.60 131.03M770.40 129.53C770.40 129.30 783.60 136.00 783.60 136.23C783.60 136.00 768.90 144.70 768.90 144.93C768.90 144.70 754.20 153.30 754.20 153.63C754.20 153.30 742.20 147.20 742.20 147.33C735.60 143.70 730.20 140.30 730.20 140.23C730.20 139.50 736.20 135.30 743.70 131.13C751.10 126.30 757.20 122.50 757.20 122.73C757.20 122.50 763.10 125.70 770.40 129.53C770.40 129.30 770.40 129.30 770.40 129.53M606.70 132.93C612.40 136.00 617.40 139.00 617.90 139.63C618.20 139.70 614.70 142.20 609.90 145.03C605.10 147.30 597.90 151.30 594.10 153.63C594.10 153.30 586.90 157.30 586.90 157.63C586.90 157.30 575.60 150.30 575.60 150.53C569.20 146.50 563.60 142.70 562.90 142.23C561.70 141.00 564.20 139.30 576.70 132.93C589.70 125.80 592.40 124.80 594.20 125.93C595.20 126.30 600.90 129.50 606.70 132.93C606.70 132.70 606.70 132.70 606.70 132.93M702.40 132.83C715.20 139.30 717.70 141.00 716.40 142.23C715.70 142.70 710.10 146.50 703.70 150.53C703.70 150.30 692.40 157.30 692.40 157.63C692.40 157.30 685.20 153.30 685.20 153.63C681.40 151.30 674.20 147.30 669.40 145.03C664.70 142.20 660.90 139.80 661.20 139.73C661.70 139.00 685.70 124.80 686.60 124.83C686.70 124.50 693.90 128.20 702.40 132.83C702.40 132.70 702.40 132.70 702.40 132.83M645.90 138.83C645.90 138.70 652.10 141.70 652.10 141.93C652.10 141.70 646.10 145.20 646.10 145.33C642.90 147.00 639.90 148.50 639.70 148.73C639.40 148.50 636.40 147.00 633.20 145.33C633.20 145.20 627.20 141.70 627.20 141.93C627.20 141.70 633.20 138.70 633.20 138.93C636.40 137.00 639.20 135.70 639.40 135.73C639.60 135.50 642.40 136.80 645.90 138.83C645.90 138.70 645.90 138.70 645.90 138.83M506.40 146.33C514.20 150.80 520.70 154.80 520.70 155.33C520.70 155.30 515.40 158.20 508.80 161.63C508.80 161.30 496.90 167.30 496.90 167.62C496.90 167.30 490.90 162.80 490.90 163.13C487.90 160.50 481.20 156.20 476.30 153.53C471.40 150.30 467.80 148.00 468.30 148.03C468.80 147.70 474.20 145.30 480.20 142.83C486.30 139.80 491.40 137.70 491.40 137.83C491.80 137.70 498.40 141.30 506.40 146.33C506.40 146.20 506.40 146.20 506.40 146.33M799.70 143.13C805.90 145.70 811.20 147.80 811.40 148.23C811.60 148.20 807.70 150.50 802.90 153.53C798.10 156.20 791.40 160.50 788.20 163.13C788.20 162.80 782.40 167.30 782.40 167.62C782.40 167.30 770.40 161.30 770.40 161.63C763.70 158.20 758.70 155.00 759.20 154.83C761.10 152.80 787.20 137.50 787.70 137.93C787.90 137.80 793.40 140.20 799.70 143.13C799.70 142.80 799.70 142.80 799.70 143.13M399.40 143.43C399.40 145.80 399.30 149.70 398.90 152.03C398.90 151.80 398.20 155.50 398.20 155.73C398.20 155.50 391.70 152.30 391.70 152.63C384.90 149.20 378.70 145.00 378.70 143.83C378.70 142.70 391.40 139.30 398.40 138.83C399.30 138.50 399.70 140.00 399.40 143.43C399.40 143.20 399.40 143.20 399.40 143.43M424.80 139.83C429.40 140.20 433.90 141.00 434.40 141.63C434.90 141.80 435.30 144.70 434.90 148.93C434.30 156.70 434.90 156.30 417.90 157.43C417.90 157.20 405.70 157.80 405.70 158.03C405.70 157.80 405.70 148.20 405.70 148.33C405.70 148.20 405.70 138.50 405.70 138.73C405.70 138.50 410.90 138.50 410.90 138.73C413.70 138.50 419.90 139.00 424.80 139.83C424.80 139.70 424.80 139.70 424.80 139.83M873.70 148.23C873.70 148.00 873.70 157.50 873.70 157.73C873.70 157.50 864.70 157.50 864.70 157.73C857.40 157.50 845.90 156.20 845.20 155.43C845.10 155.20 844.70 152.00 844.40 148.53C843.70 142.30 843.90 141.50 845.70 141.23C848.90 140.00 859.70 138.80 866.90 138.83C866.90 138.70 873.70 138.50 873.70 138.73C873.70 138.50 873.70 148.00 873.70 148.23C873.70 148.00 873.70 148.00 873.70 148.23M893.90 141.43C897.70 142.00 900.70 143.20 900.70 143.83C900.70 145.70 882.40 156.20 880.70 155.23C880.20 154.70 879.90 150.80 879.70 146.73C879.70 146.50 879.60 138.30 879.60 138.63C879.60 138.30 883.40 139.00 883.40 139.23C885.40 139.30 890.20 140.30 893.90 141.43C893.90 141.20 893.90 141.20 893.90 141.43M449.70 145.33C454.20 146.50 457.70 147.80 457.40 148.33C456.80 148.70 442.40 153.50 441.30 153.73C440.40 153.50 440.30 151.50 440.40 148.23C440.70 145.00 440.90 142.50 441.20 142.73C441.40 142.50 445.30 143.70 449.70 145.33C449.70 145.20 449.70 145.20 449.70 145.33M838.90 148.23C839.10 151.20 838.70 153.50 838.20 153.73C836.40 153.50 821.60 148.30 821.90 148.03C822.40 147.30 836.60 142.70 837.90 142.73C838.20 142.50 838.70 145.00 838.90 148.23C838.90 148.00 838.90 148.00 838.90 148.23M568.70 151.33C575.60 155.20 581.40 158.80 581.90 159.53C582.20 159.70 577.20 163.20 570.40 167.02C570.40 166.80 558.40 173.70 558.40 173.82C558.40 173.70 544.60 165.30 544.60 165.53C536.90 160.80 530.90 156.80 531.20 156.73C531.70 156.00 554.70 143.80 555.70 143.83C555.90 143.70 561.70 146.80 568.70 151.33C568.70 151.20 568.70 151.20 568.70 151.33M632.70 147.43C632.70 147.20 639.60 151.00 639.60 151.23C639.60 151.00 646.90 147.20 646.90 147.33C646.90 147.20 654.40 143.20 654.40 143.33C654.40 143.20 668.20 150.80 668.20 151.03C688.60 161.80 687.70 160.20 676.10 167.02C670.70 169.80 664.10 173.30 661.60 174.82C661.60 174.70 656.90 176.80 656.90 177.02C656.90 176.80 648.20 172.20 648.20 172.32C648.20 172.20 639.70 167.50 639.70 167.72C639.70 167.50 631.10 172.20 631.10 172.32C631.10 172.20 622.40 176.80 622.40 177.02C622.40 176.80 617.70 174.70 617.70 174.82C607.20 169.30 593.60 161.20 594.40 160.63C595.60 159.20 623.90 143.50 625.10 143.73C625.40 143.50 628.90 145.20 632.70 147.43C632.70 147.20 632.70 147.20 632.70 147.43M736.60 150.53C747.70 156.00 748.70 156.80 747.10 158.13C745.90 158.70 739.70 162.30 733.10 166.63C733.10 166.30 720.90 173.70 720.90 173.82C720.90 173.70 708.70 166.80 708.70 167.02C702.20 163.20 697.10 159.70 697.60 159.43C698.90 157.80 723.20 143.50 723.70 144.03C723.90 143.80 729.70 146.80 736.60 150.53C736.60 150.30 736.60 150.30 736.60 150.53M377.90 148.13C380.80 150.20 388.40 153.80 396.80 157.53C399.20 158.20 399.40 158.80 399.90 166.93C400.40 175.20 403.40 188.70 405.90 196.62C406.90 198.80 407.70 200.80 407.70 201.22C407.70 202.50 384.40 207.00 368.80 208.82C354.40 210.00 355.30 210.30 351.40 200.82C345.80 185.20 348.90 167.70 359.90 155.93C363.90 151.30 371.90 145.50 373.90 145.73C374.40 145.50 376.30 146.70 377.90 148.13C377.90 147.80 377.90 147.80 377.90 148.13M910.70 148.53C927.70 159.20 934.90 181.30 927.70 200.82C924.10 210.30 924.90 210.00 910.60 208.82C898.20 207.30 881.20 204.30 874.90 202.62C872.60 201.70 871.70 200.80 872.10 200.12C875.60 190.70 879.70 170.80 879.70 163.03C879.70 159.00 879.90 158.30 882.40 157.53C890.40 154.20 899.40 149.50 901.70 147.93C904.90 144.80 905.40 145.00 910.70 148.53C910.70 148.30 910.70 148.30 910.70 148.53M479.20 158.73C482.90 160.80 487.90 164.20 489.90 165.93C489.90 165.70 493.80 168.70 493.80 168.92C493.80 168.70 487.40 171.70 487.40 171.92C483.90 173.30 473.80 177.80 464.80 181.82C452.20 187.00 448.20 188.30 447.40 187.52C445.20 183.50 441.40 170.00 440.90 163.43C440.40 155.70 440.40 155.50 442.80 155.63C443.90 155.30 448.90 154.20 453.70 152.83C453.70 152.70 462.20 149.80 462.20 150.03C462.20 149.80 467.20 152.00 467.20 152.23C469.90 153.20 475.40 156.20 479.20 158.73C479.20 158.50 479.20 158.50 479.20 158.73M836.90 155.73C838.70 155.50 838.90 156.20 838.40 162.93C837.90 169.20 833.90 183.80 831.90 187.52C831.20 188.30 827.20 187.00 814.60 181.82C805.60 177.80 795.40 173.30 791.90 171.92C791.90 171.70 785.60 168.70 785.60 168.92C785.60 168.70 789.40 165.70 789.40 165.93C794.60 161.70 806.20 154.70 812.10 152.23C812.10 152.00 816.90 149.80 816.90 150.03C816.90 149.80 826.10 152.70 826.10 152.93C830.90 154.20 835.90 155.50 836.90 155.73C836.90 155.50 836.90 155.50 836.90 155.73M437.40 166.73C438.40 171.50 440.90 178.70 442.40 182.42C444.90 187.30 445.40 189.00 444.40 189.92C442.90 190.70 416.30 199.50 414.80 199.72C412.90 199.50 407.40 178.30 406.20 165.73C406.20 165.50 405.40 158.80 405.40 159.13C405.40 158.80 412.40 159.30 412.40 159.53C415.90 159.30 421.90 159.20 425.20 158.93C435.90 157.00 434.90 156.30 437.40 166.73C437.40 166.50 437.40 166.50 437.40 166.73M864.90 159.23C864.90 159.00 873.90 159.00 873.90 159.23C873.90 159.00 873.20 165.50 873.20 165.73C871.70 179.20 866.40 199.50 864.40 199.72C862.90 199.50 836.60 190.70 834.90 189.92C833.90 189.00 834.40 187.30 836.70 182.42C838.40 178.70 840.70 171.50 841.90 166.73C841.90 166.50 844.20 157.50 844.20 157.73C844.20 157.50 850.20 158.20 850.20 158.43C853.40 158.70 860.20 159.00 864.90 159.23C864.90 159.00 864.90 159.00 864.90 159.23M538.40 165.83C544.90 169.70 551.20 173.50 552.40 174.52C554.70 175.70 554.40 176.00 538.90 185.02C530.20 189.70 522.70 193.80 521.90 194.42C521.40 194.30 519.40 192.50 517.60 190.12C515.70 187.30 511.20 181.80 507.40 178.02C500.70 170.70 500.40 170.50 502.80 169.82C503.90 169.20 509.90 166.30 515.70 163.83C521.40 160.80 526.20 158.70 526.40 158.73C526.70 158.50 532.10 161.70 538.40 165.83C538.40 165.70 538.40 165.70 538.40 165.83M762.40 163.33C767.70 165.70 773.70 168.30 775.40 169.42C775.40 169.20 778.90 170.70 778.90 170.82C778.90 170.70 771.90 177.80 771.90 178.12C768.10 181.80 763.60 187.30 761.70 190.12C759.90 192.50 757.90 194.30 757.40 194.42C756.70 193.80 749.10 189.70 740.40 184.92C740.40 184.70 724.40 175.70 724.40 175.92C724.40 175.70 733.90 170.00 733.90 170.22C738.90 166.80 745.20 163.00 747.70 161.63C750.20 159.80 752.20 158.50 752.40 158.73C752.60 158.50 757.10 160.70 762.40 163.33C762.40 163.20 762.40 163.20 762.40 163.33M604.40 171.52C612.40 175.30 618.70 178.80 618.40 179.22C618.40 179.20 612.40 182.50 605.40 186.52C605.40 186.30 592.70 193.30 592.70 193.62C592.70 193.30 580.70 186.70 580.70 186.92C561.90 176.00 562.40 177.80 576.20 170.42C582.70 166.50 588.70 163.70 589.20 164.03C589.70 163.80 596.70 167.30 604.40 171.52C604.40 171.30 604.40 171.30 604.40 171.52M702.90 170.42C716.90 177.80 717.40 176.00 698.60 186.92C698.60 186.70 686.70 193.30 686.70 193.62C686.70 193.30 673.90 186.30 673.90 186.52C666.90 182.50 661.10 179.20 660.90 179.22C660.40 178.70 688.70 163.80 690.10 163.83C690.60 163.70 696.40 166.50 702.90 170.42C702.90 170.20 702.90 170.20 702.90 170.42M311.90 173.92C318.40 176.80 325.40 182.80 329.70 189.62C332.90 194.30 337.30 206.20 336.40 207.32C335.40 208.20 324.20 204.30 316.40 200.62C312.40 198.20 306.40 194.20 303.40 191.72C297.90 186.70 288.70 174.00 288.70 171.72C288.70 170.70 290.90 170.30 297.40 170.92C303.90 171.00 307.40 171.70 311.90 173.92C311.90 173.70 311.90 173.70 311.90 173.92M990.70 171.42C990.70 171.70 989.20 174.50 987.40 177.72C982.70 185.80 972.70 195.30 963.20 200.42C955.20 204.30 943.90 208.20 942.90 207.42C942.70 206.80 943.20 204.20 944.20 201.52C948.70 186.80 959.20 175.80 971.90 172.22C976.40 170.50 990.70 170.00 990.70 171.42C990.70 171.20 990.70 171.20 990.70 171.42M645.90 175.22C649.10 176.70 651.70 178.30 651.70 178.82C651.70 179.00 648.90 180.20 645.70 181.62C645.70 181.30 639.70 183.70 639.70 183.82C639.70 183.70 633.70 181.30 633.70 181.62C630.40 180.20 627.70 179.00 627.70 178.82C627.70 177.80 638.90 171.70 639.70 172.02C640.10 171.80 642.90 173.30 645.90 175.22C645.90 175.00 645.90 175.00 645.90 175.22M505.30 179.92C509.20 183.70 513.70 189.20 515.40 191.92C515.40 191.70 518.70 196.30 518.70 196.52C518.70 196.30 498.70 206.30 498.70 206.62C498.70 206.30 478.70 216.70 478.70 216.82C478.70 216.70 474.90 214.70 474.90 214.82C467.90 211.20 458.90 203.70 454.70 198.32C452.40 195.20 450.80 192.20 450.90 191.92C451.40 191.20 454.90 189.50 459.40 188.22C463.70 186.30 473.70 182.30 481.70 179.12C489.70 175.50 496.70 172.70 497.30 172.82C497.90 172.50 501.40 175.80 505.30 179.92C505.30 179.70 505.30 179.70 505.30 179.92M794.40 177.82C800.90 180.30 810.90 184.50 816.70 186.92C822.40 188.80 827.60 191.00 828.10 191.72C830.60 193.80 814.70 209.30 804.40 214.82C804.40 214.70 800.70 216.70 800.70 216.82C800.70 216.70 780.70 206.30 780.70 206.62C780.70 206.30 760.70 196.30 760.70 196.52C760.70 196.30 763.90 191.70 763.90 191.92C767.20 186.70 780.40 172.50 781.70 172.72C782.20 172.50 787.90 174.80 794.40 177.82C794.40 177.70 794.40 177.70 794.40 177.82M572.70 186.22C578.90 189.50 585.20 193.20 586.60 194.02C588.90 195.20 588.70 195.30 579.60 200.42C566.70 207.00 551.90 213.70 541.40 217.62C536.40 219.20 532.40 220.50 532.20 220.72C531.90 220.50 531.10 217.80 530.20 215.02C529.20 211.70 527.40 206.80 525.90 204.32C524.60 201.30 523.70 198.80 524.20 199.02C524.70 198.70 532.90 194.20 542.20 189.32C551.60 183.80 559.70 179.70 560.20 179.82C560.70 179.50 566.40 182.30 572.70 186.22C572.70 186.00 572.70 186.00 572.70 186.22M737.40 189.42C747.20 194.50 755.20 198.80 755.40 199.32C755.70 199.20 754.70 201.50 753.40 204.42C751.90 206.80 750.10 211.70 749.20 215.02C747.20 221.30 748.70 221.30 733.70 216.02C725.10 212.70 693.20 197.50 691.40 195.82C690.90 195.20 695.20 192.30 700.90 189.42C706.60 186.20 712.60 182.70 714.20 181.82C715.90 180.50 717.70 179.70 718.40 179.82C718.90 179.50 727.60 183.80 737.40 189.42C737.40 189.20 737.40 189.20 737.40 189.42M630.10 183.22C638.40 186.20 640.90 186.20 649.20 183.22C649.20 183.00 655.70 180.50 655.70 180.72C655.70 180.50 668.70 187.70 668.70 187.82C675.90 191.50 681.70 195.20 681.70 195.72C681.70 196.50 661.90 205.50 649.90 210.22C649.90 210.00 639.70 213.80 639.70 214.02C639.70 213.80 629.40 210.00 629.40 210.22C616.20 205.20 597.60 196.30 597.90 195.52C598.10 194.80 620.70 181.70 623.20 180.82C623.40 180.50 626.40 181.70 630.10 183.22C630.10 183.00 630.10 183.00 630.10 183.22M451.90 198.22C455.90 203.80 465.90 212.70 471.40 215.52C473.20 216.20 474.70 217.20 474.70 217.72C474.70 218.70 451.90 227.30 440.40 230.72C440.40 230.50 433.40 232.30 433.40 232.62C433.40 232.30 429.20 226.70 429.20 226.92C423.80 219.80 415.20 203.70 416.40 202.82C416.80 202.20 421.30 200.70 426.20 199.42C431.20 197.70 437.70 195.70 440.70 194.82C443.70 193.50 446.70 192.70 447.20 192.82C447.80 192.70 449.90 195.00 451.90 198.22C451.90 198.00 451.90 198.00 451.90 198.22M845.90 197.22C853.60 199.50 860.40 201.50 861.20 201.72C861.90 201.50 862.90 201.80 863.20 202.72C864.10 203.80 855.40 220.20 850.20 226.92C850.20 226.70 845.70 232.30 845.70 232.62C845.70 232.30 838.90 230.50 838.90 230.72C827.40 227.30 804.70 218.70 804.70 217.72C804.70 217.20 806.20 216.20 807.90 215.52C813.40 212.70 823.20 203.80 827.40 198.22C829.40 195.00 831.40 192.70 831.60 192.72C831.70 192.50 838.20 194.50 845.90 197.22C845.90 197.00 845.90 197.00 845.90 197.22M524.40 207.92C526.10 211.70 527.70 216.30 528.20 218.42C528.70 221.30 528.70 221.30 524.90 222.42C518.40 223.70 501.70 223.00 492.90 221.22C488.40 220.00 484.70 218.80 484.70 218.82C484.70 218.20 519.40 200.80 520.90 200.82C521.20 200.50 522.90 203.80 524.40 207.92C524.40 207.70 524.40 207.70 524.40 207.92M777.10 209.72C786.70 214.20 794.70 218.30 794.70 218.82C794.70 218.80 790.90 220.00 786.40 221.22C777.70 223.00 760.90 223.70 754.40 222.42C750.70 221.30 750.60 221.30 751.20 218.42C752.20 213.30 757.70 200.30 758.70 200.92C759.10 200.80 767.40 204.80 777.10 209.72C777.10 209.50 777.10 209.50 777.10 209.72M413.40 213.02C415.80 217.30 419.70 223.70 422.20 227.22C424.90 230.80 426.30 233.30 425.70 234.12C425.20 234.30 418.40 235.20 410.90 235.52C394.90 235.80 388.40 234.70 376.90 229.22C370.30 225.70 357.70 215.00 357.70 212.82C357.70 212.20 361.20 211.30 365.40 211.22C373.40 210.30 403.90 205.70 404.40 205.12C404.80 204.70 405.90 204.50 406.90 204.72C408.70 204.50 410.20 206.30 413.40 213.02C413.40 212.80 413.40 212.80 413.40 213.02M891.20 208.12C899.40 209.30 909.70 210.70 913.90 211.22C918.20 211.30 921.70 212.00 921.70 212.72C921.70 214.80 908.90 225.70 902.40 229.22C890.90 234.70 884.40 235.80 868.40 235.52C852.70 234.80 850.90 234.00 854.90 230.02C858.20 226.20 864.60 216.20 867.70 209.82C869.90 204.70 870.20 204.30 873.20 205.02C874.70 205.20 882.90 206.50 891.20 208.12C891.20 207.80 891.20 207.80 891.20 208.12M497.90 224.72C502.40 225.30 510.30 225.70 517.20 225.52C526.10 224.80 528.70 225.20 529.10 226.32C529.90 228.20 527.90 238.00 526.20 242.12C523.70 247.20 516.90 252.80 509.90 255.82C504.90 257.70 502.40 257.80 490.20 258.22C474.40 258.00 468.40 256.70 455.40 250.12C449.40 246.70 434.90 235.70 435.90 235.12C435.90 234.70 441.70 233.00 448.20 231.32C454.80 229.20 464.70 225.80 470.20 224.02C470.20 223.80 480.20 219.80 480.20 220.12C480.20 219.80 485.30 221.70 485.30 221.82C488.20 222.50 493.90 223.80 497.90 224.72C497.90 224.50 497.90 224.50 497.90 224.72M833.70 232.22C838.70 233.30 843.20 234.70 843.40 235.12C844.20 235.70 828.60 247.50 822.70 250.72C810.40 256.70 804.40 258.00 789.20 258.22C771.70 257.80 765.90 256.20 758.10 248.32C752.70 242.70 750.70 237.80 750.40 229.72C750.40 229.50 750.20 225.00 750.20 225.22C750.20 225.00 763.20 225.30 763.20 225.52C776.20 225.70 786.40 224.30 795.10 221.52C798.70 219.80 799.40 220.20 811.70 224.92C818.70 227.30 828.60 230.70 833.70 232.22">
        </path>
    </g>
    <style>
        path {
            fill: rgb(210, 146, 106);
        }
    </style>
</svg>
